<?xml version="1.0" encoding="UTF-8" standalone="no"?>
<!-- Generator: Adobe Illustrator 22.0.0, SVG Export Plug-In . SVG Version: 6.00 Build 0)  -->

<svg
   xmlns:dc="http://purl.org/dc/elements/1.1/"
   xmlns:cc="http://creativecommons.org/ns#"
   xmlns:rdf="http://www.w3.org/1999/02/22-rdf-syntax-ns#"
   xmlns:svg="http://www.w3.org/2000/svg"
   xmlns="http://www.w3.org/2000/svg"
   xmlns:sodipodi="http://sodipodi.sourceforge.net/DTD/sodipodi-0.dtd"
   xmlns:inkscape="http://www.inkscape.org/namespaces/inkscape"
   version="1.1"
   id="svg8"
   x="0px"
   y="0px"
   viewBox="0 0 733 611.4"
   style="enable-background:new 0 0 733 611.4;"
   xml:space="preserve"
   sodipodi:docname="plaine_fosdemx.svg"
   inkscape:version="0.92.2 2405546, 2018-03-11"
   inkscape:export-filename="/home/tperale/Downloads/fosdemx1.png"
   inkscape:export-xdpi="146.16101"
   inkscape:export-ydpi="146.16101"><metadata
   id="metadata175"><rdf:RDF><cc:Work
       rdf:about=""><dc:format>image/svg+xml</dc:format><dc:type
         rdf:resource="http://purl.org/dc/dcmitype/StillImage" /><dc:title>fosdemxok</dc:title></cc:Work></rdf:RDF></metadata><defs
   id="defs173" /><sodipodi:namedview
   pagecolor="#ffffff"
   bordercolor="#666666"
   borderopacity="1"
   objecttolerance="10"
   gridtolerance="10"
   guidetolerance="10"
   inkscape:pageopacity="0"
   inkscape:pageshadow="2"
   inkscape:window-width="1680"
   inkscape:window-height="998"
   id="namedview171"
   showgrid="true"
   inkscape:zoom="1"
   inkscape:cx="440.94233"
   inkscape:cy="354.20552"
   inkscape:window-x="0"
   inkscape:window-y="0"
   inkscape:window-maximized="1"
   inkscape:current-layer="layer1-2"><inkscape:grid
     type="axonomgrid"
     id="grid4107"
     units="mm"
     empspacing="5" /></sodipodi:namedview>
<style
   type="text/css"
   id="style2">
	.st0{stroke:#FFFFFF;stroke-width:4.5;stroke-linecap:round;stroke-linejoin:round;}
	.st1{fill:#6C6753;stroke:#000000;stroke-width:0.5;}
	.st2{fill:#C8C4B7;stroke:#000000;stroke-width:0.5;}
	.st3{fill:#C8BEB7;stroke:#000000;stroke-width:0.5;}
	.st4{fill:#E3E2DB;stroke:#000000;stroke-width:0.5;}
	.st5{fill:none;stroke:#000000;stroke-width:0.5;}
	.st6{fill:#CCCCCC;stroke:#000000;stroke-width:0.5;}
	.st7{fill:#E9DDAF;stroke:#000000;stroke-width:0.5;}
	.st8{fill:#D5D5FF;stroke:#000000;stroke-width:0.5;}
	.st9{fill:#AC9D93;stroke:#000000;stroke-width:0.5;}
	.st10{fill:#E5FF80;stroke:#000000;stroke-width:0.5;}
	.st11{fill:#ACA793;stroke:#000000;stroke-width:0.5;}
	.st12{fill:#504416;stroke:#000000;stroke-width:0.5;}
	.st13{fill:#0B50D7;fill-opacity:0.72;stroke:#000000;stroke-width:0.5;}
	.st14{fill:#AA8800;stroke:#000000;stroke-width:0.5;}
	.st15{fill:#88AA00;stroke:#000000;stroke-width:0.5;}
	.st16{fill:#668000;stroke:#000000;stroke-width:0.5;}
	.st17{fill:#89A02C;stroke:#000000;stroke-width:0.5;}
	.st18{fill:#554400;stroke:#000000;stroke-width:0.5;}
	.st19{fill:#677821;stroke:#000000;stroke-width:0.5;}
	.st20{fill:#784421;stroke:#000000;stroke-width:0.5;}
	.st21{fill:#AAD400;stroke:#000000;stroke-width:0.5;}
	.st22{fill:#FFD42A;stroke:#000000;stroke-width:0.5;}
	.st23{fill:#D38D5F;stroke:#000000;stroke-width:0.5;}
	.st24{fill:#FF7F2A;stroke:#000000;stroke-width:0.5;}
	.st25{fill:#C87137;stroke:#000000;stroke-width:0.5;}
	.st26{fill:#6C5D53;stroke:#000000;stroke-width:0.5;}
	.st27{fill:#483E37;stroke:#000000;stroke-width:0.5;}
	.st28{fill:#6C5353;stroke:#000000;stroke-width:0.5;}
	.st29{fill:#A05A2C;stroke:#000000;stroke-width:0.5;}
	.st30{fill:#AC9393;stroke:#000000;stroke-width:0.5;}
	.st31{fill:#917C6F;stroke:#000000;stroke-width:0.5;}
	.st32{fill:#FFDD55;stroke:#000000;stroke-width:0.5;}
	.st33{fill:#FFF6D5;stroke:#000000;stroke-width:0.5;}
	.st34{fill:#F4EED7;stroke:#000000;stroke-width:0.5;}
	.st35{fill:#E3DEDB;stroke:#000000;stroke-width:0.5;}
	.st36{fill:#F4E3D7;stroke:#000000;stroke-width:0.5;}
	.st37{fill:#E3DBDB;stroke:#000000;stroke-width:0.5;}
	.st38{fill:#241F1C;stroke:#000000;stroke-width:0.5;}
	.st39{fill:#C0BCAF;fill-opacity:0.94;stroke:#000000;stroke-width:0.5;}
</style>
<title
   id="title4">fosdemxok</title>
<g
   id="layer1"
   style="fill:#000000;fill-opacity:1">
	<g
   id="g5393"
   style="fill:#000000;fill-opacity:1">
		<path
   id="path5281"
   class="st0"
   d="M663.2,387.7c0-10.8-0.6-21.5-1.7-32.2l3.2-0.3l66-43.1l-7.8-31.8l-78.4-7.9l-3,1.2    c-8-20.6-18.1-40.2-30.2-58.7l2.3-1.6l38.4-68.9L630.5,120l-73.1,29.5l-1.5,1.8c-16.6-14.6-34.7-27.4-54-38.2l0.8-1.5l2-78.8    l-30.6-11.7l-51,60.1l-0.2,0.8c-21.6-5.3-43.7-8.3-65.9-9L322.1,2.3l-32.5,3.9l-17.3,76.1c-21.9,5.4-43.1,13.2-63.3,23.1    l-62.7-45.3l-26.9,18.5l19.3,74c-17,15.2-32.4,32.3-45.7,50.8L17.5,193L2.2,221.9l50.6,56c-8,21.6-13.6,44-16.7,66.9 M36.2,344.8    l106.1,9.9c15.7-97.9,98.4-171.2,197.5-175l0,0c99-3.9,187,62.5,210.5,158.7"
   style="fill:#000000;fill-opacity:1" />
	</g>
</g>
<g
   id="layer1-2">
	<path
   id="path1370"
   class="st1"
   d="M236.4,242.8v-56.7l162.8,92.1v56.7L236.4,242.8z" />
	<path
   id="path1374"
   class="st1"
   d="M399.3,278.2l162.8-92.1v56.7l-162.8,92.1V278.2z" />
	<path
   id="path1376"
   class="st2"
   d="M236.4,186.1L399.3,94l162.8,92.1l-162.8,92.1L236.4,186.1z" />
	<path
   id="path1392"
   class="st3"
   d="M236.4,256.9V143.5l25,14.2v113.4L236.4,256.9z" />
	<path
   id="path1394"
   class="st3"
   d="M274,278.2V164.8l87.7,49.6v113.4L274,278.2z" />
	<path
   id="path1396"
   class="st3"
   d="M374.2,334.9V221.5l25,14.2v113.4L374.2,334.9z" />
	<path
   id="path1398"
   class="st3"
   d="M236.4,143.5l5-2.8l25,14.2v113.4l-5,2.8V157.7L236.4,143.5z" />
	<path
   id="path1400"
   class="st3"
   d="M274,164.8l5-2.8l87.7,49.6V325l-5,2.8V214.4L274,164.8z" />
	<path
   id="path1402"
   class="st3"
   d="M374.2,221.5l5-2.8l25,14.2v113.4l-5,2.8V235.7L374.2,221.5z" />
	<path
   id="path1404"
   class="st3"
   d="M416.8,344.8V231.4l25.1-14.1v113.4L416.8,344.8z" />
	<path
   id="path1406"
   class="st3"
   d="M441.8,217.3l-5-2.8l-25,14.2V342l5,2.8V231.4L441.8,217.3z" />
	<path
   id="path1418"
   class="st3"
   d="M451.9,325V211.6l82.7-46.8v113.4L451.9,325z" />
	<path
   id="path1420"
   class="st3"
   d="M451.9,325l-5-2.8V208.8l82.7-46.8l5,2.8l-82.7,46.8V325z" />
	<path
   id="path1404-6"
   class="st3"
   d="M542,274V160.6l25-14.2v113.4L542,274z" />
	<path
   id="path1406-1"
   class="st3"
   d="M567.1,146.4l-5-2.8l-25,14.2v113.4l5,2.8V160.6L567.1,146.4z" />
	<path
   id="path1452"
   class="st4"
   d="M276.5,256.9v-36.9l12.5,7.1v5.7l-7.5-4.2v5.7l7.5,4.2v5.7l-7.5-4.2v19.8L276.5,256.9z" />
	<path
   id="path1477"
   class="st4"
   d="M291.5,265.4v-36.9l12.5,7.1v36.9L291.5,265.4z" />
	<path
   id="path1479"
   class="st5"
   d="M296.6,262.6v-22.7l2.5,1.4V264L296.6,262.6z" />
	<path
   id="path1485"
   class="st4"
   d="M379.2,337.7v70.9l20,11.3l25-14.2v-65.2l-7.5,4.2l-5-2.8v-14.2l-7.5,4.2v14.2l-5,2.8   L379.2,337.7z" />
	<path
   id="path1487"
   class="st5"
   d="M399.3,419.9v-70.9" />
	<path
   id="path1489"
   class="st6"
   d="M223.9,448.3l112.7-63.8l62.6,35.4l162.8-92.1v-65.2l-20,11.3l-5-2.8v-14.2l-2.5,1.4v19.8   L451.9,325l-5-2.8V308l-5,2.8v19.8l-17.5,9.9v65.2l-25,14.2l-20-11.3v-70.9l-5-2.8v-14.2l-7.5-4.2v8.5l-5,2.8l-87.7-49.6V264   l-7.5-4.3v8.5l-5,2.8l-25.1-14.2v70.9l25.1,14.2l-100.2,56.7l-12.7,7.1L223.9,448.3z" />
	<path
   id="path1491"
   class="st7"
   d="M236.4,327.8l62.6-35.4l-25-14.2V264l-7.5-4.3v8.5l-5,2.8l-25-14.2L236.4,327.8z" />
	<path
   id="path1493"
   class="st8"
   d="M261.5,313.6v-42.5L274,264v14.2l12.5,7.1v14.2L261.5,313.6z" />
	<path
   id="path1495"
   class="st4"
   d="M291.5,228.6l2.5-1.4l12.5,7.1v36.9l-2.5,1.4v-36.9L291.5,228.6z" />
	<path
   id="path1497"
   class="st4"
   d="M276.5,220.1l2.5-1.4l12.5,7.1v5.7l-2.5,1.4l-5-2.8v2.8l7.5,4.3v5.7l-2.5,1.4l-5-2.8v17   l-2.5,1.4v-19.8l7.5,4.2v-5.7l-7.5-4.2v-5.7l7.5,4.2v-5.7L276.5,220.1z" />
	<path
   id="path1507"
   class="st4"
   d="M306.6,237.1l12.5,7.1v14.2l-2.5-1.4v22.7l-5-2.8l0,0l-5-2.8L306.6,237.1z" />
	<path
   id="path1509"
   class="st4"
   d="M306.6,237.1l2.5-1.4l12.5,7.1v14.2l-2.5,1.4v19.8l-2.5,1.4v-22.7l2.5,1.4v-14.2L306.6,237.1z" />
	<path
   id="path1511"
   class="st4"
   d="M336.6,291v-36.9l5,2.8l0,0l5,2.8l0,0l5,2.8v36.9l-5-2.8v-5.7l-5-2.8v5.7L336.6,291z" />
	<path
   id="path1513"
   class="st4"
   d="M336.6,254.1l2.5-1.4l15,8.5V298l-2.5,1.4v-36.9L336.6,254.1z" />
	<path
   id="path1515"
   class="st4"
   d="M341.7,293.8l2.5-1.4v-2.8l-2.5-1.4V293.8z" />
	<path
   id="path1517"
   class="st5"
   d="M274,306.5V264" />
	<path
   id="path1519"
   class="st7"
   d="M236.4,327.8L211.4,342l-87.7-49.6V51.4l87.7,49.6l25-14.2L236.4,327.8L236.4,327.8z" />
	<path
   id="path1521"
   class="st9"
   d="M274,65.6L186.3,16l-62.6,35.4l87.7,49.6L274,65.6z" />
	<path
   id="path1523"
   class="st5"
   d="M211.4,101v241" />
	<path
   id="path1525"
   class="st10"
   d="M148.8,405.8L36,342l87.7-49.6l87.7,49.6l25-14.2l25.1,14.2L148.8,405.8z"
   style="fill:#aa8800" />
	<path
   id="path1527"
   class="st10"
   d="M223.9,448.3l162.9,92.1l275.5-155.9l-100.2-56.7l-162.9,92.1l-62.6-35.4L223.9,448.3z"
   style="fill:#aa8800" />
	<path
   id="path1529"
   class="st11"
   d="M236.4,256.9l-25,14.2V101L274,65.6v99.2l-7.5,4.2v-14.2l-25-14.2l-5,2.8L236.4,256.9z" />
	<path
   id="path1533"
   class="st12"
   d="M36,342v28.3l350.7,198.5l275.5-155.9v-28.3L386.8,540.4L36,342z" />
	<path
   id="path1535"
   class="st5"
   d="M386.8,540.4v28.3" />
	<path
   id="path1541"
   class="st13"
   d="M36,370.3v14.2l350.7,198.5L662.3,427v-14.2L386.8,568.8L36,370.3z" />
	<path
   id="path1543"
   class="st14"
   d="M36,384.5v28.3l350.7,198.4l275.5-155.9V427L386.8,582.9L36,384.5z"
   style="fill:#aa5d00;fill-opacity:1" />
	<path
   id="path1545"
   class="st5"
   d="M386.8,568.8v42.5" />
	<path
   id="path1547"
   class="st4"
   d="M519.5,286.7v45.4L537,342l25-14.2v-65.2L542,274l-5-2.8v-14.2l-2.5,1.4v19.8L519.5,286.7z" />
	<path
   id="path1549"
   class="st5"
   d="M537,342v-70.9" />
	<path
   id="path2238"
   class="st15"
   d="M168.8,309.4l5-2.8l2.5-1.4l17.5,12.8l17.5-12.8l2.5,1.4l5,2.8l-25,14.2L168.8,309.4z"
   style="fill:#d38d5f" />
	<path
   id="path2240"
   class="st16"
   d="M176.3,308v-11.3l17.5,9.9l17.5-9.9V308l-17.5,9.9L176.3,308z"
   style="fill:#c87137" />
	<path
   id="path2242"
   class="st17"
   d="M176.3,296.6l5-2.8l2.5-1.4l10,8.5l10-8.5l2.5,1.4l5,2.8l-17.5,9.9L176.3,296.6z"
   style="fill:#d38d5f" />
	<path
   id="path2244"
   class="st16"
   d="M183.8,295.2V281l10,5.7l10-5.7v14.2l-10,5.7L183.8,295.2z"
   style="fill:#c87137" />
	<path
   id="path2246"
   class="st16"
   d="M183.8,281l10-5.7l10,5.7l-10,5.7L183.8,281z"
   style="fill:#d38d5f" />
	<path
   id="path2248"
   class="st18"
   d="M188.8,334.9v11.4l5,2.8l5-2.8v-11.4l-5,2.8L188.8,334.9z" />
	<path
   id="path2236-0"
   class="st19"
   d="M599.7,323.5l-25,14.2l-25-14.2v-14.2l25,14.2l25-14.2V323.5z"
   style="fill:#a05a2c" />
	<path
   id="path2238-4"
   class="st15"
   d="M549.6,309.4l5-2.8l2.5-1.4l17.5,12.8l17.5-12.8l2.5,1.4l5,2.8l-25,14.2L549.6,309.4z"
   style="fill:#d38d5f" />
	<path
   id="path2240-8"
   class="st16"
   d="M557.1,308v-11.3l17.5,9.9l17.5-9.9V308l-17.5,9.9L557.1,308z"
   style="fill:#a05a2c" />
	<path
   id="path2242-7"
   class="st17"
   d="M557.1,296.6l5-2.8l2.5-1.4l10,8.5l10-8.5l2.5,1.4l5,2.8l-17.5,9.9L557.1,296.6z"
   style="fill:#d38d5f" />
	<path
   id="path2244-0"
   class="st16"
   d="M564.6,295.2V281l10,5.7l10-5.7v14.2l-10,5.7L564.6,295.2z"
   style="fill:#a05a2c" />
	<path
   id="path2246-8"
   class="st16"
   d="M564.6,281l10-5.7l10,5.7l-10,5.7L564.6,281z"
   style="fill:#d38d5f" />
	<path
   id="path2248-6"
   class="st18"
   d="M569.6,334.9v11.4l5,2.8l5-2.8v-11.4l-5,2.8L569.6,334.9z" />
	<path
   id="path2236-2"
   class="st19"
   d="M612.2,356.1l-25,14.2l-25-14.2V342l25,14.2l25-14.2V356.1z"
   style="fill:#c8ab37" />
	<path
   id="path2238-47"
   class="st15"
   d="M562.1,342l5-2.8l2.5-1.4l17.5,12.8l17.5-12.8l2.5,1.4l5,2.8l-25,14.2L562.1,342z"
   style="fill:#a0892c" />
	<path
   id="path2240-9"
   class="st16"
   d="M569.6,340.6v-11.3l17.5,9.9l17.5-9.9v11.3l-17.5,9.9L569.6,340.6z"
   style="fill:#c8ab37" />
	<path
   id="path2242-3"
   class="st17"
   d="M569.6,329.2l5-2.8l2.5-1.4l10,8.5l10-8.5l2.5,1.4l5,2.8l-17.5,9.9L569.6,329.2z"
   style="fill:#a0892c" />
	<path
   id="path2244-9"
   class="st16"
   d="M577.1,327.8v-14.2l10,5.7l10-5.7v14.2l-10,5.7L577.1,327.8z"
   style="fill:#c8ab37" />
	<path
   id="path2246-2"
   class="st16"
   d="M577.1,313.6l10-5.7l10,5.7l-10,5.7L577.1,313.6z"
   style="fill:#a0892c" />
	<path
   id="path2248-8"
   class="st18"
   d="M582.1,367.5v11.3l5,2.8l5-2.8v-11.3l-5,2.8L582.1,367.5z" />
	<path
   id="path2356"
   class="st20"
   d="M158.8,332.1v5.7l5,2.8l5-2.8v-5.7l-5,2.8L158.8,332.1z" />
	<path
   id="path2356-1"
   class="st20"
   d="M203.9,349.1v5.7l5,2.8l5-2.8v-5.7l-5,2.8L203.9,349.1z" />
	<path
   id="path2352-7"
   class="st17"
   d="M609.7,366.1l15,8.5l15-8.5v-11.3l-15,8.5l-15-8.5V366.1z"
   style="fill:#d4aa00" />
	<path
   id="path2354-8"
   class="st21"
   d="M609.7,354.7l15-8.5l15,8.5l-15,8.5L609.7,354.7z"
   style="fill:#806600" />
	<path
   id="path2356-9"
   class="st20"
   d="M619.7,371.7v5.7l5,2.8l5-2.8v-5.7l-5,2.8L619.7,371.7z" />
	<path
   id="path1355"
   class="st14"
   d="M93.7,351.9l2.5-1.4l-2.5-1.4l2.5-1.4l2.5,1.4l2.5-1.4l2.5,1.4l-2.5,1.4l2.5,1.4l-2.5,1.4   l-2.5-1.4l-2.5,1.4L93.7,351.9z" />
	<path
   id="path1355-8"
   class="st14"
   d="M339.1,451.1l2.5-1.4l-2.5-1.4l2.5-1.4l2.5,1.4l2.5-1.4l2.5,1.4l-2.5,1.4l2.5,1.4l-2.5,1.4   l-2.5-1.4l-2.5,1.4L339.1,451.1z" />
	<path
   id="path1375"
   class="st18"
   d="M411.8,449.7l5-2.8l5,2.8l-5,2.8L411.8,449.7z" />
	<path
   id="path1379"
   class="st22"
   d="M562.1,370.3l-2.5-1.4l-2.5,1.4l-2.5-1.4V366l2.5-1.4h5l2.5,1.4l-2.5,1.4l2.5,1.4L562.1,370.3z   " />
	<path
   id="path1379-4"
   class="st22"
   d="M606.6,371.1l1.5,2.4l2.9-0.1l1.5,2.4l-1.3,2.5l-2.9,0.1l-4.4-2.3l-1.5-2.4l2.9-0.1l-1.5-2.4   L606.6,371.1z" />
	<path
   id="path1379-8"
   class="st23"
   d="M557.1,347.6l-2.5-1.4l-2.5,1.4l-2.5-1.4v-2.8l2.5-1.4h5l2.5,1.4l-2.5,1.4l2.5,1.4   L557.1,347.6z" />
	<path
   id="path1379-1"
   class="st22"
   d="M178.8,337.7l-2.5-1.4l-2.5,1.4l-2.5-1.4v-2.8l2.5-1.4h5l2.5,1.4l-2.5,1.4l2.5,1.4   L178.8,337.7z" />
	<path
   id="path1419"
   class="st24"
   d="M191.3,359l2.5-1.4l-2.5-1.4l7.5-1.4v5.7l-2.5-1.4l-2.5,1.4L191.3,359z" />
	<path
   id="path1375-0"
   class="st18"
   d="M486.9,393l5-2.8l5,2.8l-5,2.8L486.9,393z" />
	<path
   id="path1375-3"
   class="st18"
   d="M499.5,456.8l5-2.8l5,2.8l-5,2.8L499.5,456.8z" />
	<path
   id="path1375-04"
   class="st18"
   d="M98.7,329.2l5-2.8l5,2.8l-5,2.8L98.7,329.2z" />
	<path
   id="path1375-4"
   class="st18"
   d="M136.2,364.7l5-2.8l5,2.8l-5,2.8L136.2,364.7z" />
	<path
   id="path1355-4"
   class="st14"
   d="M557.1,415.7l2.5-1.4l-2.5-1.4l2.5-1.4l2.5,1.4l2.5-1.4l2.5,1.4l-2.5,1.4l2.5,1.4l-2.5,1.4   l-2.5-1.4l-2.5,1.4L557.1,415.7z" />
	<path
   id="path1469"
   class="st16"
   d="M148.8,323.5v-5.7l-22.5-12.8v8.5l22.5,12.8V323.5z"
   style="fill:#d4aa00" />
	<path
   id="path1471"
   class="st15"
   d="M126.2,305.1l10-5.7l22.5,12.8l-10,5.7L126.2,305.1z"
   style="fill:#ffcc00" />
	<path
   id="path1473"
   class="st16"
   d="M158.8,312.2v8.5l-10,5.7v-8.5L158.8,312.2z" />
	<path
   id="path2354"
   class="st21"
   d="M148.8,315l15-8.5l15,8.5l-15,8.5L148.8,315z"
   style="fill:#c87137" />
	<path
   id="path2352"
   class="st17"
   d="M148.8,326.4l15,8.5l15-8.5V315l-15,8.5l-15-8.5V326.4z"
   style="fill:#d38d5f" />
	<path
   id="path2236"
   class="st19"
   d="M218.9,323.5l-25,14.2l-25.1-14.2v-14.2l25,14.2l25-14.2L218.9,323.5z"
   style="fill:#c87137" />
	<path
   id="path1501"
   class="st15"
   d="M226.4,342v-11.3l12.5-7.1v11.3L226.4,342z"
   style="fill:#a05a2c" />
	<path
   id="path1503"
   class="st15"
   d="M226.4,330.6l-7.5-4.2v11.3l7.5,4.2V330.6z"
   style="fill:#a05a2c" />
	<path
   id="path1505"
   class="st16"
   d="M218.9,326.4l12.5-7.1l7.5,4.2l-12.5,7.1L218.9,326.4z"
   style="fill:#a05a2c" />
	<path
   id="path2352-3"
   class="st17"
   d="M193.8,343.4l15,8.5l15-8.5v-11.3l-15,8.5l-15-8.5V343.4z"
   style="fill:#d38d5f" />
	<path
   id="path2354-0"
   class="st21"
   d="M193.8,332.1l15-8.5l15,8.5l-15,8.5L193.8,332.1z"
   style="fill:#c87137" />
	<path
   id="path1510"
   class="st5"
   d="M103.7,298l15,8.5l15-8.5l-15-8.5L103.7,298z" />
	<path
   id="path1516"
   class="st25"
   d="M113.7,303.7v8.5l5,2.8l5-2.8v-8.5l-5,2.8L113.7,303.7z" />
	<path
   id="path1518"
   class="st5"
   d="M108.7,283.9l10,5.7l10-5.7" />
	<path
   id="path1520"
   class="st5"
   d="M111.2,262.6l7.5,4.2l7.5-4.2" />
	<path
   id="path1524"
   class="st5"
   d="M106.2,291l12.5,7.1l12.5-7.1" />
	<path
   id="path1526"
   class="st16"
   d="M91.2,322.1v-8.5l-10-5.7v8.5L91.2,322.1z"
   style="fill:#c87137" />
	<path
   id="path1528"
   class="st16"
   d="M91.2,313.6l22.5-12.8v8.5l-22.5,12.8V313.6z"
   style="fill:#d38d5f" />
	<path
   id="path1530"
   class="st21"
   d="M81.1,308l22.5-12.8l10,5.7l-22.5,12.8L81.1,308z"
   style="fill:#ff7f2a" />
	<path
   id="path1512"
   class="st16"
   d="M133.8,298l-7.5-24.1h-15l-7.5,24.1l15,8.5L133.8,298z"
   style="fill:#ffcc00" />
	<path
   id="path1514"
   class="st16"
   d="M131.2,274l-12.5,7.1l-12.5-7.1l12.5-26.9L131.2,274z"
   style="fill:#ffcc00" />
	<path
   id="path1534"
   class="st15"
   d="M136.2,356.1V342l-12.5-7.1l-12.5,7.1v14.2l12.5,7.1L136.2,356.1z"
   style="fill:#c87137" />
	<path
   id="path1536"
   class="st21"
   d="M111.2,342l12.5,7.1l12.5-7.1l-12.5-7.1L111.2,342z"
   style="fill:#a05a2c" />
	<path
   id="path1501-3"
   class="st15"
   d="M406.8,424.2v-11.3l12.5-7.1v11.3L406.8,424.2z"
   style="fill:#d4aa00" />
	<path
   id="path1503-1"
   class="st15"
   d="M406.8,412.8l-7.5-4.2v11.3l7.5,4.2V412.8z"
   style="fill:#d4aa00" />
	<path
   id="path1505-7"
   class="st16"
   d="M399.3,408.6l12.5-7.1l7.5,4.2l-12.5,7.1L399.3,408.6z"
   style="fill:#ffcc00" />
	<path
   id="path1469-5"
   class="st16"
   d="M391.8,424.2v-5.7l-22.5-12.8v8.5l22.5,12.7V424.2z"
   style="fill:#d4aa00" />
	<path
   id="path1471-9"
   class="st15"
   d="M369.2,405.8l10-5.7l22.6,12.8l-10,5.7L369.2,405.8z"
   style="fill:#ffdd55" />
	<path
   id="path1577"
   class="st16"
   d="M391.8,427l7.5-4.2l2.5-1.4v-8.5l-10,5.7L391.8,427z"
   style="fill:#ffcc00" />
	<path
   id="path1585"
   class="st9"
   d="M113.7,445.4l7.5,4.2V444l-2.5-1.4v-2.8l-5-2.8L113.7,445.4z" />
	<path
   id="path1587"
   class="st26"
   d="M206.4,497.9V495l5,2.8v-5.7l2.5,1.4v8.5L206.4,497.9z" />
	<path
   id="path1589"
   class="st9"
   d="M264,536.2v-2.9l5,2.8v2.8L264,536.2z" />
	<path
   id="path1591"
   class="st27"
   d="M176.3,483.7v-8.5l-10-2.8v8.5L176.3,483.7z" />
	<path
   id="path1591-6"
   class="st27"
   d="M349.2,575.8l3.2-7.9l-8.2-6.3l-3.2,7.9L349.2,575.8z" />
	<path
   id="path1589-2"
   class="st9"
   d="M339.1,578.7v-2.8l5,2.8v2.8L339.1,578.7z" />
	<path
   id="path1589-1"
   class="st9"
   d="M153.8,465.3v-2.8l5,2.8v2.8L153.8,465.3z" />
	<path
   id="path1629"
   class="st9"
   d="M306.6,551.7v-2.8l2.5,1.4v2.8L306.6,551.7z" />
	<path
   id="path1629-7"
   class="st9"
   d="M201.4,492.2v-2.8l2.5,1.4v2.8L201.4,492.2z" />
	<path
   id="path1629-8"
   class="st9"
   d="M46.1,410v-2.8l2.5,1.4v2.8L46.1,410z" />
	<path
   id="path1629-5"
   class="st9"
   d="M81.1,421.4v-2.8l2.5,1.4v2.8L81.1,421.4z" />
	<path
   id="path1658"
   class="st28"
   d="M429.3,567.3l5-2.8v5.7l-5,2.8V567.3z" />
	<path
   id="path1658-7"
   class="st28"
   d="M509.5,516.3l5-2.8v5.7l-5,2.8V516.3z" />
	<path
   id="path1658-4"
   class="st28"
   d="M614.7,470.9l5-2.8v5.7l-5,2.8V470.9z" />
	<path
   id="path1681"
   class="st29"
   d="M456.9,548.9v8.5l10-5.7v-5.7l-2.5,1.4v-2.8l-2.5,1.4v2.8l-2.5,1.4v-2.8L456.9,548.9z" />
	<path
   id="path1683"
   class="st30"
   d="M542,506.4v5.7l15-5.7l-2.5-7.1L542,506.4z" />
	<path
   id="path1694"
   class="st31"
   d="M634.8,459.6l10-5.7v-5.7l-10,5.7V459.6z" />
	<path
   id="path1694-1"
   class="st31"
   d="M489.4,547.5l10-5.7v-5.7l-10,5.7V547.5z" />
	<path
   id="path1711"
   class="st32"
   d="M572.1,486.6v-2.8l2.5-1.4v2.8L572.1,486.6z" />
	<path
   id="path1711-8"
   class="st3"
   d="M517,529.1v-2.8l2.5-1.4v2.8L517,529.1z" />
	<path
   id="path1711-5"
   class="st27"
   d="M444.4,570.2v-2.8l2.5-1.4v2.8L444.4,570.2z" />
	<path
   id="path1711-9"
   class="st3"
   d="M401.8,594.3v-2.8l2.5-1.4v2.8L401.8,594.3z" />
	<path
   id="path1711-53"
   class="st33"
   d="M434.3,550.3v-2.8l2.5-1.4v2.8L434.3,550.3z" />
	<path
   id="path1711-88"
   class="st33"
   d="M497,514.9v-2.8l2.5-1.4v2.8L497,514.9z" />
	<path
   id="path1711-3"
   class="st33"
   d="M547.1,486.6v-2.8l2.5-1.4v2.8L547.1,486.6z" />
	<path
   id="path1711-1"
   class="st34"
   d="M597.2,458.2v-2.8l2.5-1.4v2.8L597.2,458.2z" />
	<path
   id="path1711-89"
   class="st34"
   d="M647.2,429.9V427l2.5-1.4v2.8L647.2,429.9z" />
	<path
   id="path1711-6"
   class="st33"
   d="M441.8,540.4v-2.8l2.5-1.4v2.8L441.8,540.4z" />
	<path
   id="path1711-4"
   class="st33"
   d="M456.9,540.4v-2.8l2.5-1.4v2.8L456.9,540.4z" />
	<path
   id="path1629-7-3"
   class="st33"
   d="M63.6,400.1v-2.8l2.5,1.4v2.8L63.6,400.1z" />
	<path
   id="path1629-7-33"
   class="st35"
   d="M76.1,398.7v-2.8l2.5,1.4v2.8L76.1,398.7z" />
	<path
   id="path1629-7-8"
   class="st33"
   d="M88.6,414.3v-2.8l2.5,1.4v2.8L88.6,414.3z" />
	<path
   id="path1629-7-6"
   class="st35"
   d="M126.2,435.5v-2.8l2.5,1.4v2.8L126.2,435.5z" />
	<path
   id="path1629-7-0"
   class="st36"
   d="M113.7,419.9v-2.8l2.5,1.4v2.8L113.7,419.9z" />
	<path
   id="path1629-7-4"
   class="st35"
   d="M163.8,456.8v-2.8l2.5,1.4v2.8L163.8,456.8z" />
	<path
   id="path1629-7-88"
   class="st35"
   d="M251.5,506.4v-2.8l2.5,1.4v2.8L251.5,506.4z" />
	<path
   id="path1629-7-89"
   class="st35"
   d="M339.1,553.2v-2.9l2.5,1.4v2.8L339.1,553.2z" />
	<path
   id="path1849"
   class="st37"
   d="M256.5,242.8l-12.5-7.1l-5,2.8l12.5,7.1L256.5,242.8z" />
	<path
   id="path1851"
   class="st37"
   d="M256.5,242.8v8.5l-5,2.8l-12.5-7.1v-8.5l12.5,7.1L256.5,242.8z" />
	<path
   id="path1853"
   class="st5"
   d="M251.5,245.6v8.5" />
	<path
   id="path1855"
   class="st37"
   d="M249,252.7v19.8l-2.5-1.4v-19.8L249,252.7z" />
	<path
   id="path1857"
   class="st38"
   d="M251.5,239.9v-2.8l-2.5-1.4v2.8L251.5,239.9z" />
	<path
   id="path1861"
   class="st37"
   d="M261.5,271.1l2.5,1.4l10-5.7V264L261.5,271.1z" />
	<path
   id="path1863"
   class="st37"
   d="M261.5,274l2.5,1.4l10-5.7v-2.8l-10,5.7l-2.5-1.4V274z" />
	<path
   id="path1865"
   class="st5"
   d="M264,272.5v2.8" />
	<path
   id="path6297"
   class="st39"
   d="M324.1,247l5,2.8v25.5l2.5,1.4v-25.5l5,2.8v31.2l-12.5-7.1L324.1,247z" />
<path
   inkscape:connector-curvature="0"
   id="path1419-3"
   class="st24"
   d="m 161.8415,357.11024 2.5,-1.4 -2.5,-1.4 7.5,-1.4 v 5.7 l -2.5,-1.4 -2.5,1.4 z"
   style="fill:#ff7f2a;stroke:#000000;stroke-width:0.5" /><path
   inkscape:connector-curvature="0"
   id="path1419-6"
   class="st24"
   d="m 132.383,336.32283 2.5,-1.4 -2.5,-1.4 7.5,-1.4 v 5.7 l -2.5,-1.4 -2.5,1.4 z"
   style="fill:#ff7f2a;stroke:#000000;stroke-width:0.5" /><path
   inkscape:connector-curvature="0"
   id="path1419-7"
   class="st24"
   d="m 341.86568,415.69291 2.5,-1.4 -2.5,-1.4 7.5,-1.4 v 5.7 l -2.5,-1.4 -2.5,1.4 z"
   style="fill:#ff7f2a;stroke:#000000;stroke-width:0.5" /><path
   inkscape:connector-curvature="0"
   id="path1419-5"
   class="st24"
   d="m 312.40718,436.48031 2.5,-1.4 -2.5,-1.4 7.5,-1.4 v 5.7 l -2.5,-1.4 -2.5,1.4 z"
   style="fill:#ff7f2a;stroke:#000000;stroke-width:0.5" /><path
   inkscape:connector-curvature="0"
   id="path1419-35"
   class="st24"
   d="m 377.87051,455.37795 2.5,-1.4 -2.5,-1.4 7.5,-1.4 v 5.7 l -2.5,-1.4 -2.5,1.4 z"
   style="fill:#ff7f2a;stroke:#000000;stroke-width:0.5" /><path
   inkscape:connector-curvature="0"
   id="path1419-62"
   class="st24"
   d="m 328.77301,468.6063 2.5,-1.4 -2.5,-1.4 7.5,-1.4 v 5.7 l -2.5,-1.4 -2.5,1.4 z"
   style="fill:#ff7f2a;stroke:#000000;stroke-width:0.5" /><path
   inkscape:connector-curvature="0"
   id="path1419-9"
   class="st24"
   d="m 302.58768,449.70866 2.5,-1.4 -2.5,-1.4 7.5,-1.4 v 5.7 l -2.5,-1.4 -2.5,1.4 z"
   style="fill:#ff7f2a;stroke:#000000;stroke-width:0.5" /><path
   inkscape:connector-curvature="0"
   id="path1419-1"
   class="st24"
   d="m 456.42652,421.3622 2.5,-1.4 -2.5,-1.4 7.5,-1.4 v 5.7 l -2.5,-1.4 -2.5,1.4 z"
   style="fill:#ff7f2a;stroke:#000000;stroke-width:0.5" /><path
   inkscape:connector-curvature="0"
   id="path1419-2"
   class="st24"
   d="m 462.97285,466.71653 2.5,-1.4 -2.5,-1.4 7.5,-1.4 v 5.7 l -2.5,-1.4 -2.5,1.4 z"
   style="fill:#ff7f2a;stroke:#000000;stroke-width:0.5" /><path
   inkscape:connector-curvature="0"
   id="path1375-9"
   class="st18"
   d="m 375.79517,481.82598 5,-2.8 5,2.8 -5,2.8 z"
   style="fill:#554400;stroke:#000000;stroke-width:0.5" /><path
   inkscape:connector-curvature="0"
   id="path1375-36"
   class="st18"
   d="m 68.11748,345.76299 5,-2.8 5,2.8 -5,2.8 z"
   style="fill:#554400;stroke:#000000;stroke-width:0.5" /><path
   inkscape:connector-curvature="0"
   id="path1375-06"
   class="st18"
   d="m 529.63401,381.6685 5,-2.8 5,2.8 -5,2.8 z"
   style="fill:#554400;stroke:#000000;stroke-width:0.5" /><path
   inkscape:connector-curvature="0"
   id="path1375-2"
   class="st18"
   d="m 516.54134,404.34566 5,-2.8 5,2.8 -5,2.8 z"
   style="fill:#554400;stroke:#000000;stroke-width:0.5" /><path
   inkscape:connector-curvature="0"
   id="path1375-6"
   class="st18"
   d="m 618.00952,391.11732 5,-2.8 5,2.8 -5,2.8 z"
   style="fill:#554400;stroke:#000000;stroke-width:0.5" /><path
   inkscape:connector-curvature="0"
   id="path1379-18"
   class="st22"
   d="m 549.00733,396.7567 -2.5,-1.4 -2.5,1.4 -2.5,-1.4 v -2.9 l 2.5,-1.4 h 5 l 2.5,1.4 -2.5,1.4 2.5,1.4 z"
   style="fill:#ffd42a;stroke:#000000;stroke-width:0.5" /><path
   inkscape:connector-curvature="0"
   id="path1379-7"
   class="st22"
   d="m 313.33932,415.65434 -2.5,-1.4 -2.5,1.4 -2.5,-1.4 v -2.9 l 2.5,-1.4 h 5 l 2.5,1.4 -2.5,1.4 2.5,1.4 z"
   style="fill:#ffd42a;stroke:#000000;stroke-width:0.5" /><path
   inkscape:connector-curvature="0"
   id="path1379-9"
   class="st22"
   d="m 280.60765,461.00867 -2.5,-1.4 -2.5,1.4 -2.5,-1.4 v -2.9 l 2.5,-1.4 h 5 l 2.5,1.4 -2.5,1.4 2.5,1.4 z"
   style="fill:#ffd42a;stroke:#000000;stroke-width:0.5" /><path
   inkscape:connector-curvature="0"
   id="path1379-2"
   class="st22"
   d="m 323.855,442.89348 -1.6567,2.3378 1.12757,2.63412 -1.65671,2.3378 -2.88371,-0.30689 -1.12758,-2.63412 0.52914,-4.97193 1.65671,-2.3378 1.12757,2.63412 1.6567,-2.3378 z"
   style="fill:#ffd42a;stroke:#000000;stroke-width:0.5" /><path
   inkscape:connector-curvature="0"
   id="path1379-0"
   class="st22"
   d="m 287.15398,438.3315 -2.5,-1.4 -2.5,1.4 -2.5,-1.4 v -2.9 l 2.5,-1.4 h 5 l 2.5,1.4 -2.5,1.4 2.5,1.4 z"
   style="fill:#ffd42a;stroke:#000000;stroke-width:0.5" /><path
   inkscape:connector-curvature="0"
   id="path1379-23"
   class="st22"
   d="m 365.8438,431.3035 -1.48407,-2.45102 -2.86527,-0.0154 -1.48407,-2.45103 1.43053,-2.52262 2.86527,0.0154 4.34934,2.46643 1.48406,2.45103 -2.86526,-0.0154 1.48406,2.45103 z"
   style="fill:#ffd42a;stroke:#000000;stroke-width:0.5" /><path
   inkscape:connector-curvature="0"
   id="path1355-4-7"
   class="st14"
   d="m 177.41264,347.6685 2.5,-1.4 -2.5,-1.4 2.5,-1.4 2.5,1.4 2.5,-1.4 2.5,1.4 -2.5,1.4 2.5,1.4 -2.5,1.4 -2.5,-1.4 -2.5,1.4 z"
   style="fill:#aa8800;stroke:#000000;stroke-width:0.5" /><path
   inkscape:connector-curvature="0"
   id="path1355-4-5"
   class="st14"
   d="m 589.83167,385.46377 2.5,-1.4 -2.5,-1.4 2.5,-1.4 2.5,1.4 2.5,-1.4 2.5,1.4 -2.5,1.4 2.5,1.4 -2.5,1.4 -2.5,-1.4 -2.5,1.4 z"
   style="fill:#aa8800;stroke:#000000;stroke-width:0.5" /><path
   inkscape:connector-curvature="0"
   id="path1355-4-9"
   class="st14"
   d="m 534.18783,360.89685 2.5,-1.4 -2.5,-1.4 2.5,-1.4 2.5,1.4 2.5,-1.4 2.5,1.4 -2.5,1.4 2.5,1.4 -2.5,1.4 -2.5,-1.4 -2.5,1.4 z"
   style="fill:#aa8800;stroke:#000000;stroke-width:0.5" /><path
   inkscape:connector-curvature="0"
   id="path1375-4-2"
   class="st18"
   d="m 119.83417,325.01496 5,-2.8 5,2.8 -5,2.8 z"
   style="fill:#554400;stroke:#000000;stroke-width:0.5" /><path
   inkscape:connector-curvature="0"
   id="path1419-28"
   class="st24"
   d="m 515.34352,428.92126 2.5,-1.4 -2.5,-1.4 7.5,-1.4 v 5.7 l -2.5,-1.4 -2.5,1.4 z"
   style="fill:#ff7f2a;stroke:#000000;stroke-width:0.5" /><path
   inkscape:connector-curvature="0"
   id="path1419-97"
   class="st24"
   d="m 512.07036,370.33858 2.5,-1.4 -2.5,-1.4 7.5,-1.4 v 5.7 l -2.5,-1.4 -2.5,1.4 z"
   style="fill:#ff7f2a;stroke:#000000;stroke-width:0.5" /><path
   inkscape:connector-curvature="0"
   id="path1419-36"
   class="st24"
   d="m 593.89953,394.90551 2.5,-1.4 -2.5,-1.4 7.5,-1.4 v 5.7 l -2.5,-1.4 -2.5,1.4 z"
   style="fill:#ff7f2a;stroke:#000000;stroke-width:0.5" /><path
   style="fill:#829951;stroke:#000000;stroke-width:0.2;stroke-linecap:butt;stroke-linejoin:miter;stroke-opacity:1;stroke-miterlimit:4;stroke-dasharray:none;fill-opacity:1"
   d="m 274.15663,270.78679 4.06255,2.34552 v 3.77953 l 3.27317,1.88976 v 3.77953 L 274,278.2 Z"
   id="path5147"
   inkscape:connector-curvature="0" /><path
   style="fill:#8fab70;stroke:#000000;stroke-width:0.3;stroke-linecap:butt;stroke-linejoin:miter;stroke-opacity:1;stroke-miterlimit:4;stroke-dasharray:none;fill-opacity:1"
   d="m 320.77035,304.62286 v -4.91443 l -3.27316,-1.9158 v 4.91444 z"
   id="path5149"
   inkscape:connector-curvature="0" /><path
   style="fill:#8fab70;fill-opacity:1;stroke:#000000;stroke-width:0.30000001;stroke-linecap:butt;stroke-linejoin:miter;stroke-miterlimit:4;stroke-dasharray:none;stroke-opacity:1"
   d="m 301.13135,293.28427 v -4.91443 l -3.27316,-1.9158 v 4.91444 z"
   id="path5149-2"
   inkscape:connector-curvature="0" /><path
   style="fill:#8fab70;fill-opacity:1;stroke:#000000;stroke-width:0.30000001;stroke-linecap:butt;stroke-linejoin:miter;stroke-miterlimit:4;stroke-dasharray:none;stroke-opacity:1"
   d="m 377.67316,336.81579 v -4.91443 L 374.4,329.98556 V 334.9 Z"
   id="path5149-9"
   inkscape:connector-curvature="0" /><path
   style="fill:#8fab70;fill-opacity:1;stroke:#000000;stroke-width:0.30000001;stroke-linecap:butt;stroke-linejoin:miter;stroke-miterlimit:4;stroke-dasharray:none;stroke-opacity:1"
   d="m 261.5,271 v -4.91443 l -3.27316,-1.9158 v 4.91444 z"
   id="path5149-3"
   inkscape:connector-curvature="0" /><path
   style="fill:#949768;fill-opacity:1;stroke:#000000;stroke-width:0.40000001;stroke-linecap:butt;stroke-linejoin:miter;stroke-miterlimit:4;stroke-dasharray:none;stroke-opacity:1"
   d="m 361.84329,313.85365 -5.0681,-2.92607 v 3.77953 l -3.27317,-1.88976 v 3.77952 3.77953 l -3.27316,-1.88976 v 2.66019 L 361.7,327.8 c -0.007,-4.59374 0.13289,-7.67205 0.18996,-10.13987 z"
   id="path5184"
   inkscape:connector-curvature="0"
   sodipodi:nodetypes="ccccccccccc" /><path
   style="fill:none;stroke:#000000;stroke-width:1px;stroke-linecap:butt;stroke-linejoin:miter;stroke-opacity:1"
   d="m 363.32152,318.48664 c 0,0 0,0 0,0 z"
   id="path5186"
   inkscape:connector-curvature="0" /><path
   style="fill:#829951;stroke:#000000;stroke-width:0.2;stroke-linecap:butt;stroke-linejoin:miter;stroke-opacity:1;stroke-miterlimit:4;stroke-dasharray:none;fill-opacity:1"
   d="m 399.32636,343.05357 1.2465,-0.71967 0.01,3.77376 1.25202,-0.72285 0.024,2.05192 L 399.2,348.9 Z"
   id="path5188"
   inkscape:connector-curvature="0" /><path
   style="fill:#4d7043;stroke:#000000;stroke-width:0.3;stroke-linecap:butt;stroke-linejoin:miter;stroke-opacity:1;stroke-miterlimit:4;stroke-dasharray:none;fill-opacity:1"
   d="m 438.60436,331.71499 v -3.77953 l 3.27317,-1.88977 0.0225,4.65431 -3.29564,1.7554 z"
   id="path5190"
   inkscape:connector-curvature="0" /><path
   style="fill:#617043;fill-opacity:1;stroke:#000000;stroke-width:0.30000001;stroke-linecap:butt;stroke-linejoin:miter;stroke-miterlimit:4;stroke-dasharray:none;stroke-opacity:1"
   d="m 531.20433,279.21499 v -3.77953 l 3.27317,-1.88977 0.0225,4.65431 -3.29564,1.7554 z"
   id="path5190-1"
   inkscape:connector-curvature="0" /><path
   style="fill:#4d7043;fill-opacity:1;stroke:#000000;stroke-width:0.30000001;stroke-linecap:butt;stroke-linejoin:miter;stroke-miterlimit:4;stroke-dasharray:none;stroke-opacity:1"
   d="m 498.9805,297.67989 v -3.77953 l 3.27317,-1.88977 0.0225,4.65431 -3.29564,1.7554 z"
   id="path5190-9"
   inkscape:connector-curvature="0" /><path
   style="fill:#667043;fill-opacity:1;stroke:#000000;stroke-width:0.30000001;stroke-linecap:butt;stroke-linejoin:miter;stroke-miterlimit:4;stroke-dasharray:none;stroke-opacity:1"
   d="m 563.70433,260.81499 v -3.77953 L 566.9775,255.14569 567,259.8 l -3.29564,1.7554 z"
   id="path5190-7"
   inkscape:connector-curvature="0" /><path
   style="fill:#4d501f;fill-opacity:1;stroke:#000000;stroke-width:0.30000001;stroke-linecap:butt;stroke-linejoin:miter;stroke-miterlimit:4;stroke-dasharray:none;stroke-opacity:1"
   d="m 468.06286,314.70711 v -3.77953 l 3.27317,-1.88977 0.0225,4.65431 -3.29564,1.7554 z"
   id="path5190-8"
   inkscape:connector-curvature="0" /><path
   style="fill:#324218;stroke:#000000;stroke-width:0.2;stroke-linecap:butt;stroke-linejoin:miter;stroke-opacity:1;stroke-miterlimit:4;stroke-dasharray:none;fill-opacity:1"
   d="m 451.69703,312.81735 6.54633,-3.77953 v 7.55905 l 1.93964,-1.11984 -0.0127,2.23234 1.34626,-0.92105 v 2.88604 L 451.9,325 Z"
   id="path5231"
   inkscape:connector-curvature="0" /><path
   style="fill:#3c4ad1;fill-opacity:1;stroke:#f9f3ea;stroke-width:1px;stroke-linecap:butt;stroke-linejoin:miter;stroke-opacity:1"
   d="m 176.75101,67.148056 -31.67087,-18.28519 39.278,-22.677157 32.73167,18.897646 z"
   id="path5241"
   inkscape:connector-curvature="0"
   sodipodi:nodetypes="ccccc"
   inkscape:transform-center-x="-40.983357"
   inkscape:transform-center-y="-42.876403" /><path
   style="fill:none;stroke:#f9f3ea;stroke-width:1px;stroke-linecap:butt;stroke-linejoin:bevel;stroke-opacity:1"
   d="m 151.62648,45.08334 32.73166,18.897645"
   id="path5243"
   inkscape:connector-curvature="0"
   sodipodi:nodetypes="cc"
   inkscape:transform-center-x="-27.890692"
   inkscape:transform-center-y="-35.01112" /><path
   style="fill:none;stroke:#f9f3ea;stroke-width:1px;stroke-linecap:butt;stroke-linejoin:miter;stroke-opacity:1"
   d="m 158.17281,41.303814 32.73167,18.897645"
   id="path5245"
   inkscape:connector-curvature="0"
   sodipodi:nodetypes="cc"
   inkscape:transform-center-x="-34.437027"
   inkscape:transform-center-y="-38.790648" /><path
   style="fill:none;stroke:#f9f3ea;stroke-width:1px;stroke-linecap:butt;stroke-linejoin:miter;stroke-opacity:1"
   d="m 164.71914,37.524288 32.73167,18.897645"
   id="path5247"
   inkscape:connector-curvature="0"
   sodipodi:nodetypes="cc"
   inkscape:transform-center-x="-40.983357"
   inkscape:transform-center-y="-42.570175" /><path
   style="fill:none;stroke:#f9f3ea;stroke-width:1px;stroke-linecap:butt;stroke-linejoin:miter;stroke-opacity:1"
   d="m 171.26548,33.744762 32.73167,18.897645"
   id="path5249"
   inkscape:connector-curvature="0"
   sodipodi:nodetypes="cc"
   inkscape:transform-center-x="-47.529697"
   inkscape:transform-center-y="-46.349703" /><path
   style="fill:none;stroke:#f9f3ea;stroke-width:1px;stroke-linecap:butt;stroke-linejoin:miter;stroke-opacity:1"
   d="m 177.81181,29.965236 32.73167,18.897645"
   id="path5251"
   inkscape:connector-curvature="0"
   sodipodi:nodetypes="cc"
   inkscape:transform-center-x="-54.076027"
   inkscape:transform-center-y="-50.12923" /><path
   style="fill:none;stroke:#f9f3ea;stroke-width:1px;stroke-linecap:butt;stroke-linejoin:miter;stroke-opacity:1"
   d="m 151.62648,52.642395 39.278,-22.677156"
   id="path5253"
   inkscape:connector-curvature="0"
   inkscape:transform-center-x="-31.163862"
   inkscape:transform-center-y="-48.239467" /><path
   style="fill:none;stroke:#f9f3ea;stroke-width:1px;stroke-linecap:butt;stroke-linejoin:miter;stroke-opacity:1"
   d="m 158.17281,56.421924 39.278,-22.677156"
   id="path5255"
   inkscape:connector-curvature="0"
   inkscape:transform-center-x="-37.710192"
   inkscape:transform-center-y="-44.459939" /><path
   style="fill:none;stroke:#f9f3ea;stroke-width:1px;stroke-linecap:butt;stroke-linejoin:miter;stroke-opacity:1"
   d="M 164.71914,60.201453 203.99715,37.524297"
   id="path5257"
   inkscape:connector-curvature="0"
   inkscape:transform-center-x="-44.256527"
   inkscape:transform-center-y="-40.680412" /><path
   style="fill:none;stroke:#f9f3ea;stroke-width:1px;stroke-linecap:butt;stroke-linejoin:miter;stroke-opacity:1"
   d="m 171.26548,63.980982 39.278,-22.677156"
   id="path5259"
   inkscape:connector-curvature="0"
   inkscape:transform-center-x="-50.802862"
   inkscape:transform-center-y="-36.900884" /><path
   style="fill:#3c4ad1;fill-opacity:1;stroke:#f9f3ea;stroke-width:1px;stroke-linecap:butt;stroke-linejoin:miter;stroke-opacity:1"
   d="m 214.96821,89.212766 -31.67087,-18.28519 39.278,-22.677156 32.73167,18.897645 z"
   id="path5241-5"
   inkscape:connector-curvature="0"
   sodipodi:nodetypes="ccccc"
   inkscape:transform-center-x="-40.983357"
   inkscape:transform-center-y="-42.876403" /><path
   style="fill:none;stroke:#f9f3ea;stroke-width:1px;stroke-linecap:butt;stroke-linejoin:miter;stroke-opacity:1"
   d="m 189.84368,67.14805 32.73166,18.897645"
   id="path5243-0"
   inkscape:connector-curvature="0"
   sodipodi:nodetypes="cc"
   inkscape:transform-center-x="-27.890692"
   inkscape:transform-center-y="-35.01112" /><path
   style="fill:none;stroke:#f9f3ea;stroke-width:1px;stroke-linecap:butt;stroke-linejoin:miter;stroke-opacity:1"
   d="m 196.39001,63.368524 32.73167,18.897645"
   id="path5245-3"
   inkscape:connector-curvature="0"
   sodipodi:nodetypes="cc"
   inkscape:transform-center-x="-34.437027"
   inkscape:transform-center-y="-38.790648" /><path
   style="fill:none;stroke:#f9f3ea;stroke-width:1px;stroke-linecap:butt;stroke-linejoin:miter;stroke-opacity:1"
   d="m 202.93634,59.588998 32.73167,18.897645"
   id="path5247-6"
   inkscape:connector-curvature="0"
   sodipodi:nodetypes="cc"
   inkscape:transform-center-x="-40.983357"
   inkscape:transform-center-y="-42.570175" /><path
   style="fill:none;stroke:#f9f3ea;stroke-width:1px;stroke-linecap:butt;stroke-linejoin:miter;stroke-opacity:1"
   d="m 209.48268,55.809473 32.73167,18.897644"
   id="path5249-1"
   inkscape:connector-curvature="0"
   sodipodi:nodetypes="cc"
   inkscape:transform-center-x="-47.529697"
   inkscape:transform-center-y="-46.349703" /><path
   style="fill:none;stroke:#f9f3ea;stroke-width:1px;stroke-linecap:butt;stroke-linejoin:miter;stroke-opacity:1"
   d="m 216.02901,52.029947 32.73167,18.897644"
   id="path5251-0"
   inkscape:connector-curvature="0"
   sodipodi:nodetypes="cc"
   inkscape:transform-center-x="-54.076027"
   inkscape:transform-center-y="-50.12923" /><path
   style="fill:none;stroke:#f9f3ea;stroke-width:1px;stroke-linecap:butt;stroke-linejoin:miter;stroke-opacity:1"
   d="m 189.84368,74.707105 39.278,-22.677155"
   id="path5253-6"
   inkscape:connector-curvature="0"
   inkscape:transform-center-x="-31.163862"
   inkscape:transform-center-y="-48.239467" /><path
   style="fill:none;stroke:#f9f3ea;stroke-width:1px;stroke-linecap:butt;stroke-linejoin:miter;stroke-opacity:1"
   d="m 196.39001,78.486634 39.278,-22.677155"
   id="path5255-3"
   inkscape:connector-curvature="0"
   inkscape:transform-center-x="-37.710192"
   inkscape:transform-center-y="-44.459939" /><path
   style="fill:none;stroke:#f9f3ea;stroke-width:1px;stroke-linecap:butt;stroke-linejoin:miter;stroke-opacity:1"
   d="M 202.93634,82.266163 242.21435,59.589007"
   id="path5257-2"
   inkscape:connector-curvature="0"
   inkscape:transform-center-x="-44.256527"
   inkscape:transform-center-y="-40.680412" /><path
   style="fill:none;stroke:#f9f3ea;stroke-width:1px;stroke-linecap:butt;stroke-linejoin:miter;stroke-opacity:1"
   d="m 209.48268,86.045692 39.278,-22.677156"
   id="path5259-0"
   inkscape:connector-curvature="0"
   inkscape:transform-center-x="-50.802862"
   inkscape:transform-center-y="-36.900884" /><path
   style="fill:#6c5d53;fill-opacity:1;stroke:#000000;stroke-width:0.1;stroke-linecap:butt;stroke-linejoin:miter;stroke-miterlimit:4;stroke-dasharray:none;stroke-opacity:1"
   d="m 213.04738,88.782957 -0.0416,2.301033 1.97662,1.133263 2.20332,-1.24722 0.0331,-2.296694 -2.2505,1.157864 z"
   id="path5309"
   inkscape:connector-curvature="0"
   sodipodi:nodetypes="ccccccc" /><path
   style="fill:none;stroke:#000000;stroke-width:0.1;stroke-linecap:butt;stroke-linejoin:miter;stroke-opacity:1;stroke-miterlimit:4;stroke-dasharray:none"
   d="m 214.96828,89.831203 0.0141,2.38605"
   id="path5311"
   inkscape:connector-curvature="0" /><path
   style="fill:#6c5d53;fill-opacity:1;stroke:#000000;stroke-width:0.1;stroke-linecap:butt;stroke-linejoin:miter;stroke-miterlimit:4;stroke-dasharray:none;stroke-opacity:1"
   d="m 174.83007,66.730512 -0.0416,2.301033 1.97662,1.133263 2.20332,-1.24722 0.0331,-2.296694 -2.2505,1.157864 z"
   id="path5309-6"
   inkscape:connector-curvature="0"
   sodipodi:nodetypes="ccccccc" /><path
   style="fill:none;stroke:#000000;stroke-width:0.1;stroke-linecap:butt;stroke-linejoin:miter;stroke-miterlimit:4;stroke-dasharray:none;stroke-opacity:1"
   d="m 176.75097,67.778758 0.0141,2.38605"
   id="path5311-1"
   inkscape:connector-curvature="0" /><path
   style="fill:#6c5d53;fill-opacity:1;stroke:#000000;stroke-width:0.1;stroke-linecap:butt;stroke-linejoin:miter;stroke-miterlimit:4;stroke-dasharray:none;stroke-opacity:1"
   d="m 144.12241,48.942229 v 2.367294 l 1.97662,1.133263 c -0.0141,-1.484432 0,0 -0.0141,-2.38605 z"
   id="path5309-6-5"
   inkscape:connector-curvature="0"
   sodipodi:nodetypes="ccccc" /><path
   style="fill:#6c5d53;fill-opacity:1;stroke:#000000;stroke-width:0.1;stroke-linecap:butt;stroke-linejoin:miter;stroke-miterlimit:4;stroke-dasharray:none;stroke-opacity:1"
   d="m 254.11797,70.758557 2.20332,-1.24722 0.0331,-2.296694 -2.2505,1.157864 c 1e-5,1.647769 1e-5,0.765625 0.0141,2.38605 z"
   id="path5309-6-9"
   inkscape:connector-curvature="0"
   sodipodi:nodetypes="cccccc" /><path
   style="fill:none;stroke:none;stroke-width:0.1;stroke-linecap:butt;stroke-linejoin:miter;stroke-miterlimit:4;stroke-dasharray:none;stroke-opacity:1"
   d="m 255.30697,67.778757 0.0141,2.38605 -1.96753,-1.356586 z"
   id="path5311-1-3"
   inkscape:connector-curvature="0" /><path
   style="fill:none;stroke:#000000;stroke-width:0.1;stroke-linecap:butt;stroke-linejoin:miter;stroke-opacity:1;stroke-miterlimit:4;stroke-dasharray:none"
   d="m 146.09903,52.442786 1.91699,-1.308819"
   id="path5382"
   inkscape:connector-curvature="0" /><path
   style="fill:none;stroke:#000000;stroke-width:0;stroke-linecap:butt;stroke-linejoin:miter;stroke-opacity:1;stroke-miterlimit:4;stroke-dasharray:none"
   d="m 148.01602,51.133967 -1.93109,-1.077231"
   id="path5384"
   inkscape:connector-curvature="0" /><path
   style="fill:#6c5d53;fill-opacity:1;stroke:#f9f3ea;stroke-width:0;stroke-linecap:butt;stroke-linejoin:bevel;stroke-miterlimit:4;stroke-dasharray:none;stroke-opacity:1"
   d="m 146.15457,51.778553 c -0.008,-0.299717 -0.0137,-0.808804 -0.0137,-1.131303 l -4e-5,-0.586363 0.89912,0.518902 c 0.49451,0.285397 0.9013,0.521148 0.90398,0.523892 0.003,0.0027 -0.23548,0.168977 -0.52924,0.369406 -0.29377,0.20043 -0.69439,0.473765 -0.89028,0.607412 l -0.35615,0.242995 z"
   id="path5386"
   inkscape:connector-curvature="0" /><path
   style="fill:#6c5d53;fill-opacity:1;stroke:#000000;stroke-width:0.1;stroke-linecap:butt;stroke-linejoin:miter;stroke-miterlimit:4;stroke-dasharray:none;stroke-opacity:1"
   d="m 182.32938,71.005353 v 2.367294 l 1.97662,1.133263 c -0.0141,-1.484432 0,0 -0.0141,-2.38605 z"
   id="path5309-6-5-7"
   inkscape:connector-curvature="0"
   sodipodi:nodetypes="ccccc" /><path
   style="fill:none;stroke:#000000;stroke-width:0.1;stroke-linecap:butt;stroke-linejoin:miter;stroke-miterlimit:4;stroke-dasharray:none;stroke-opacity:1"
   d="m 184.306,74.50591 1.87534,-1.324437"
   id="path5382-4"
   inkscape:connector-curvature="0"
   sodipodi:nodetypes="cc" /><path
   style="fill:none;stroke:#000000;stroke-width:0;stroke-linecap:butt;stroke-linejoin:miter;stroke-miterlimit:4;stroke-dasharray:none;stroke-opacity:1"
   d="m 184.02086,73.62398 -1.93109,-1.077231"
   id="path5384-5"
   inkscape:connector-curvature="0" /><path
   style="fill:#6c5d53;fill-opacity:1;stroke:#f9f3ea;stroke-width:0;stroke-linecap:butt;stroke-linejoin:bevel;stroke-miterlimit:4;stroke-dasharray:none;stroke-opacity:1"
   d="m 184.35633,73.815647 c -0.008,-0.299717 -0.0137,-0.808804 -0.0137,-1.131303 l -4e-5,-0.586363 0.89912,0.518902 c 0.49451,0.285397 0.9013,0.521148 0.90398,0.523892 0.003,0.0027 -0.23548,0.168977 -0.52924,0.369406 -0.29377,0.20043 -0.66315,0.484177 -0.85904,0.617824 l -0.40821,0.284643 z"
   id="path5386-2"
   inkscape:connector-curvature="0"
   sodipodi:nodetypes="ccccccccc" /><path
   style="fill:none;stroke:#000000;stroke-width:0.1007577;stroke-linecap:butt;stroke-linejoin:miter;stroke-miterlimit:4;stroke-dasharray:none;stroke-opacity:1"
   d="m 254.11797,70.758557 -1.81286,-1.443922"
   id="path5412"
   inkscape:connector-curvature="0" /><path
   style="fill:none;stroke:#000000;stroke-width:0;stroke-linecap:butt;stroke-linejoin:miter;stroke-miterlimit:4;stroke-dasharray:none;stroke-opacity:1"
   d="m 253.55078,68.763306 1.75623,-0.984549"
   id="path5414"
   inkscape:connector-curvature="0"
   sodipodi:nodetypes="cc" /><path
   style="fill:#6c5d53;fill-opacity:1;stroke:#000000;stroke-width:0.00041502;stroke-linecap:butt;stroke-linejoin:bevel;stroke-miterlimit:4;stroke-dasharray:none;stroke-opacity:1"
   d="m 253.20357,69.969812 c -0.47216,-0.372474 -0.85886,-0.678701 -0.85935,-0.680505 -4.8e-4,-0.0018 0.38301,-0.214212 0.85219,-0.472019 l 0.85306,-0.46874 0.002,0.690594 c 0.001,0.379827 0.004,0.874561 0.008,1.099411 0.003,0.22485 0.004,0.431242 0.004,0.45865 l -0.001,0.04984 z"
   id="path5418"
   inkscape:connector-curvature="0" /><path
   style="fill:#6c5d53;fill-opacity:1;stroke:#000000;stroke-width:0.1;stroke-linecap:butt;stroke-linejoin:miter;stroke-miterlimit:4;stroke-dasharray:none;stroke-opacity:1"
   d="m 215.85365,48.727857 2.20332,-1.24722 0.0331,-2.296694 -2.2505,1.157864 c 1e-5,1.647769 1e-5,0.765625 0.0141,2.38605 z"
   id="path5309-6-9-5"
   inkscape:connector-curvature="0"
   sodipodi:nodetypes="cccccc" /><path
   style="fill:#6c5d53;fill-opacity:1;stroke:#000000;stroke-width:0.00041502;stroke-linecap:butt;stroke-linejoin:bevel;stroke-miterlimit:4;stroke-dasharray:none;stroke-opacity:1"
   d="m 214.93925,47.939112 c -0.47216,-0.372474 -0.84229,-0.628983 -0.84278,-0.630787 -4.8e-4,-0.0018 0.37749,-0.22526 0.84667,-0.483067 l 0.84201,-0.50741 0.002,0.690594 c 0.001,0.379827 0.004,0.874561 0.008,1.099411 0.003,0.22485 0.004,0.431242 0.004,0.45865 l -0.001,0.04984 z"
   id="path5418-4"
   inkscape:connector-curvature="0"
   sodipodi:nodetypes="ccccccccc" /><path
   style="fill:none;stroke:#000000;stroke-width:0.1007577;stroke-linecap:butt;stroke-linejoin:miter;stroke-miterlimit:4;stroke-dasharray:none;stroke-opacity:1"
   d="m 215.85367,48.727857 -1.81286,-1.443922"
   id="path5412-7"
   inkscape:connector-curvature="0" /><path
   inkscape:connector-curvature="0"
   id="path2352-7-2"
   data-name="path2352-7"
   class="cls-42"
   d="m 384.4,428.7 15,8.5 15,-8.5 v -17.3 l -15,8.5 -15,-8.5 z"
   style="fill:#d45500;stroke:#000000;stroke-width:0.60000002;stroke-miterlimit:4;stroke-dasharray:none;stroke-opacity:1" /><path
   inkscape:connector-curvature="0"
   id="path2354-8-2"
   data-name="path2354-8"
   class="cls-43"
   d="m 384.4,411.3 15,-8.5 15,8.5 -15,8.5 z"
   style="fill:#d45500;fill-opacity:1;stroke:#000000;stroke-width:0.5;stroke-miterlimit:4;stroke-dasharray:none;stroke-opacity:1" /><line
   class="cls-18"
   x1="353.53201"
   y1="392.08743"
   x2="353.53201"
   y2="409.48743"
   id="line174"
   style="stroke-width:0.4;stroke-miterlimit:4;stroke-dasharray:none;stroke:#000000;stroke-opacity:1" /><path
   inkscape:connector-curvature="0"
   id="path2354-8-3"
   data-name="path2354-8"
   class="cls-44"
   d="m 388.69,417.71 -1.53,-0.87 v 3.24 l 1.53,0.91 z"
   style="fill:#552200;fill-opacity:1;stroke:#000000;stroke-width:0.40000001;stroke-miterlimit:4;stroke-dasharray:none;stroke-opacity:1" /><path
   inkscape:connector-curvature="0"
   id="path2354-8-4"
   data-name="path2354-8"
   class="cls-44"
   d="m 395.4,421 -1.54,-0.87 v 3.23 l 1.54,0.94 z"
   style="fill:#552200;fill-opacity:1;stroke:#000000;stroke-width:0.40000001;stroke-miterlimit:4;stroke-dasharray:none;stroke-opacity:1" /><polygon
   transform="translate(67.350001,24.350002)"
   class="cls-44"
   points="327.41,403.58 330.84,405 330.43,406.23 328.56,405.52 327.7,407.13 319.25,403.23 319.63,402.03 318.4,401.49 318.79,400.25 320.95,401.09 320.57,402.74 322.09,403.35 322.43,401.75 325.37,402.97 325.37,404.46 327.06,405.31 "
   id="polygon178"
   style="fill:#552200;fill-opacity:1;stroke:#000000;stroke-width:0.40000001;stroke-miterlimit:4;stroke-dasharray:none;stroke-opacity:1" /><polyline
   transform="translate(67.350001,24.350002)"
   class="cls-45"
   points="328.84 384.51 328.84 386.44 331.73 388.26 334.61 386.38 334.61 384.51"
   id="polyline180"
   style="fill:#2d5500;fill-opacity:1;stroke:#000000;stroke-width:0.40000001;stroke-miterlimit:4;stroke-dasharray:none;stroke-opacity:1" /><polygon
   transform="translate(67.350001,24.350002)"
   class="cls-46"
   points="331.73,386.23 328.84,384.51 331.76,382.74 334.61,384.51 "
   id="polygon182"
   style="fill:#2d5500;fill-opacity:1;stroke:#000000;stroke-width:0.40000001;stroke-miterlimit:4;stroke-dasharray:none;stroke-opacity:1" /></g>
<path
   id="path1509_1_"
   class="st4"
   d="M311.5,276.8v-22.7" />
<path
   id="path1509_2_"
   class="st4"
   d="M341.1,279.6v-22.7" />
<path
   id="path1509_3_"
   class="st4"
   d="M347.2,283.2v-22.7" />
</svg>