<svg id="svg8" xmlns="http://www.w3.org/2000/svg" viewBox="0 0 732.95 611.43"><defs><style>.cls-1{stroke:#fff;stroke-linecap:round;stroke-linejoin:round;stroke-width:4.5px;}.cls-2{fill:#6c6753;}.cls-10,.cls-11,.cls-12,.cls-13,.cls-14,.cls-15,.cls-16,.cls-17,.cls-18,.cls-19,.cls-2,.cls-20,.cls-21,.cls-22,.cls-23,.cls-24,.cls-25,.cls-26,.cls-27,.cls-28,.cls-29,.cls-3,.cls-30,.cls-31,.cls-32,.cls-33,.cls-34,.cls-35,.cls-36,.cls-37,.cls-38,.cls-39,.cls-4,.cls-40,.cls-5,.cls-6,.cls-7,.cls-8,.cls-9{stroke:#000;stroke-width:0.27px;}.cls-3{fill:#c8c4b7;}.cls-4{fill:#c8beb7;}.cls-5{fill:#e3e2db;}.cls-6{fill:none;}.cls-7{fill:#ccc;}.cls-8{fill:#e9ddaf;}.cls-9{fill:#d5d5ff;}.cls-10{fill:#ac9d93;}.cls-11{fill:#e5ff80;}.cls-12{fill:#aca793;}.cls-13{fill:#504416;}.cls-14{fill:#0b50d7;fill-opacity:0.72;}.cls-15{fill:#a80;}.cls-16{fill:#8a0;}.cls-17{fill:#668000;}.cls-18{fill:#89a02c;}.cls-19{fill:#540;}.cls-20{fill:#677821;}.cls-21{fill:#784421;}.cls-22{fill:#aad400;}.cls-23{fill:#ffd42a;}.cls-24{fill:#d38d5f;}.cls-25{fill:#ff7f2a;}.cls-26{fill:#c87137;}.cls-27{fill:#6c5d53;}.cls-28{fill:#483e37;}.cls-29{fill:#6c5353;}.cls-30{fill:#a05a2c;}.cls-31{fill:#ac9393;}.cls-32{fill:#917c6f;}.cls-33{fill:#fd5;}.cls-34{fill:#fff6d5;}.cls-35{fill:#f4eed7;}.cls-36{fill:#e3dedb;}.cls-37{fill:#f4e3d7;}.cls-38{fill:#e3dbdb;}.cls-39{fill:#241f1c;}.cls-40{fill:#c0bcaf;fill-opacity:0.94;}</style></defs><title>fosdemxok</title><g id="layer1"><g id="g5393"><path id="path5281" class="cls-1" d="M862.47,548.44a314.79,314.79,0,0,0-1.68-32.2l3.17-.33,66-43.14L922.18,441l-78.42-7.9-3,1.19a315.64,315.64,0,0,0-30.15-58.66l2.35-1.56,38.37-68.85-21.62-24.52-73.11,29.45L755.05,312a315.74,315.74,0,0,0-54-38.21l.83-1.51,2-78.8L673.3,181.77l-51,60.06-.18.78a315.36,315.36,0,0,0-65.93-9L521.29,163l-32.46,3.87-17.3,76.08a314.87,314.87,0,0,0-63.29,23.14L345.5,220.82l-26.94,18.51,19.3,74a315.15,315.15,0,0,0-45.74,50.8l-75.38-10.43-15.26,28.92,50.63,56a315,315,0,0,0-16.66,66.88m0,0,106.06,9.9A208.26,208.26,0,0,1,539,340.36h0a208.24,208.24,0,0,1,210.5,158.69" transform="translate(-199.23 -160.72)"/></g></g><g id="layer1-2" data-name="layer1"><path id="path1370" class="cls-2" d="M435.67,403.49v-56.7l162.82,92.13v56.69Z" transform="translate(-199.23 -160.72)"/><path id="path1374" class="cls-2" d="M598.49,438.92l162.82-92.13v56.7L598.49,495.61Z" transform="translate(-199.23 -160.72)"/><path id="path1376" class="cls-3" d="M435.67,346.79l162.82-92.12,162.82,92.12L598.49,438.92Z" transform="translate(-199.23 -160.72)"/><path id="path1392" class="cls-4" d="M435.67,417.66V304.27l25.05,14.18V431.83Z" transform="translate(-199.23 -160.72)"/><path id="path1394" class="cls-4" d="M473.24,438.92V325.53l87.68,49.61V488.53Z" transform="translate(-199.23 -160.72)"/><path id="path1396" class="cls-4" d="M573.44,495.61V382.23l25,14.17V509.78Z" transform="translate(-199.23 -160.72)"/><path id="path1398" class="cls-4" d="M435.67,304.27l5-2.83,25.05,14.17V429l-5,2.83V318.45Z" transform="translate(-199.23 -160.72)"/><path id="path1400" class="cls-4" d="M473.24,325.53l5-2.83,87.68,49.6V485.69l-5,2.84V375.14Z" transform="translate(-199.23 -160.72)"/><path id="path1402" class="cls-4" d="M573.44,382.23l5-2.84,25,14.17V507l-5,2.83V396.4Z" transform="translate(-199.23 -160.72)"/><path id="path1404" class="cls-4" d="M616,505.53V392.15L641.07,378V491.36Z" transform="translate(-199.23 -160.72)"/><path id="path1406" class="cls-4" d="M641.07,378l-5-2.83-25,14.17V502.7l5,2.83V392.15Z" transform="translate(-199.23 -160.72)"/><path id="path1418" class="cls-4" d="M651.09,485.69V372.3l82.67-46.77V438.92Z" transform="translate(-199.23 -160.72)"/><path id="path1420" class="cls-4" d="M651.09,485.69l-5-2.83V369.47l82.67-46.77,5,2.83L651.09,372.3Z" transform="translate(-199.23 -160.72)"/><path id="path1404-6" class="cls-4" d="M741.27,434.67V321.28l25.05-14.17V420.49Z" transform="translate(-199.23 -160.72)"/><path id="path1406-1" class="cls-4" d="M766.32,307.11l-5-2.84-25,14.18V431.83l5,2.84V321.28Z" transform="translate(-199.23 -160.72)"/><path id="path1452" class="cls-5" d="M475.75,417.66V380.81l12.52,7.09v5.66l-7.51-4.25V395l7.51,4.25v5.67l-7.51-4.25v19.84Z" transform="translate(-199.23 -160.72)"/><path id="path1477" class="cls-5" d="M490.78,426.16V389.31l12.52,7.09v36.85Z" transform="translate(-199.23 -160.72)"/><path id="path1479" class="cls-6" d="M495.79,423.33V400.65l2.5,1.42v22.68Z" transform="translate(-199.23 -160.72)"/><path id="path1485" class="cls-5" d="M578.45,498.45v70.86l20,11.34,25-14.17v-65.2L616,505.53l-5-2.83V488.53l-7.51,4.25V507l-5,2.83Z" transform="translate(-199.23 -160.72)"/><path id="path1487" class="cls-6" d="M598.49,580.65V509.78" transform="translate(-199.23 -160.72)"/><path id="path1489" class="cls-7" d="M423.14,609l112.73-63.78,62.62,35.43,162.82-92.12v-65.2l-20,11.34-5-2.84V417.66l-2.5,1.42v19.84l-82.67,46.77-5-2.83V468.68l-5,2.84v19.84l-17.53,9.92v65.2l-25,14.17-20-11.34V498.45l-5-2.84V481.44l-7.51-4.25v8.5l-5,2.84-87.68-49.61V424.75l-7.51-4.26V429l-5,2.83-25.05-14.17v70.87l25.05,14.17-100.2,56.69L348,566.48Z" transform="translate(-199.23 -160.72)"/><path id="path1491" class="cls-8" d="M435.67,488.53l62.62-35.44-25.05-14.17V424.75l-7.51-4.26V429l-5,2.83-25.05-14.17Z" transform="translate(-199.23 -160.72)"/><path id="path1493" class="cls-9" d="M460.72,474.35V431.83l12.52-7.08v14.17L485.77,446v14.17Z" transform="translate(-199.23 -160.72)"/><path id="path1495" class="cls-5" d="M490.78,389.31l2.5-1.41L505.81,395v36.85l-2.51,1.42V396.4Z" transform="translate(-199.23 -160.72)"/><path id="path1497" class="cls-5" d="M475.75,380.81l2.5-1.42,12.53,7.09v5.67l-2.51,1.41-5-2.83v2.83l7.52,4.26v5.67l-2.51,1.41-5-2.83v17l-2.5,1.41V400.65l7.51,4.25v-5.67L480.76,395v-5.67l7.51,4.25V387.9Z" transform="translate(-199.23 -160.72)"/><path id="path1507" class="cls-5" d="M505.81,397.82l12.52,7.08v14.18l-2.5-1.42v22.68l-5-2.84v0l-5-2.83Z" transform="translate(-199.23 -160.72)"/><path id="path1509" class="cls-5" d="M505.81,397.82l2.5-1.42,12.53,7.09v14.17l-2.51,1.42v19.84l-2.5,1.42V417.66l2.5,1.42V404.9Z" transform="translate(-199.23 -160.72)"/><path id="path1511" class="cls-5" d="M535.87,451.67V414.82l5,2.84v0l5,2.83v0l5,2.84v36.85l-5-2.84v-5.67l-5-2.83v5.67Z" transform="translate(-199.23 -160.72)"/><path id="path1513" class="cls-5" d="M535.87,414.82l2.5-1.41,15,8.5v36.85l-2.5,1.42V423.33Z" transform="translate(-199.23 -160.72)"/><path id="path1515" class="cls-5" d="M540.88,454.51l2.5-1.42v-2.83l-2.5-1.42Z" transform="translate(-199.23 -160.72)"/><path id="path1517" class="cls-6" d="M473.24,467.27V424.75" transform="translate(-199.23 -160.72)"/><path id="path1519" class="cls-8" d="M435.67,488.53,410.62,502.7l-87.68-49.61V212.15l87.68,49.6,25.05-14.17V488.53Z" transform="translate(-199.23 -160.72)"/><path id="path1521" class="cls-10" d="M473.24,226.32l-87.67-49.61-62.63,35.44,87.68,49.6Z" transform="translate(-199.23 -160.72)"/><path id="path1523" class="cls-6" d="M410.62,261.75v241" transform="translate(-199.23 -160.72)"/><path id="path1525" class="cls-11" d="M348,566.48,235.27,502.7l87.67-49.61,87.68,49.61,25.05-14.17,25.05,14.17Z" transform="translate(-199.23 -160.72)"/><path id="path1527" class="cls-11" d="M423.14,609,586,701.12l275.54-155.9-100.2-56.69L598.49,580.65l-62.62-35.43Z" transform="translate(-199.23 -160.72)"/><path id="path1529" class="cls-12" d="M435.67,417.66l-25.05,14.17V261.75l62.62-35.43v99.21l-7.51,4.25V315.61l-25.05-14.17-5,2.83Z" transform="translate(-199.23 -160.72)"/><path id="path1533" class="cls-13" d="M235.27,502.7V531L586,729.47,861.51,573.56V545.22L586,701.12Z" transform="translate(-199.23 -160.72)"/><path id="path1535" class="cls-6" d="M586,701.12v28.35" transform="translate(-199.23 -160.72)"/><path id="path1541" class="cls-14" d="M235.27,531v14.18L586,743.64l275.54-155.9V573.56L586,729.47Z" transform="translate(-199.23 -160.72)"/><path id="path1543" class="cls-15" d="M235.27,545.22v28.34L586,772,861.51,616.08V587.74L586,743.64Z" transform="translate(-199.23 -160.72)"/><path id="path1545" class="cls-6" d="M586,729.47V772" transform="translate(-199.23 -160.72)"/><path id="path1547" class="cls-5" d="M718.73,447.42v45.36l17.53,9.92,25-14.17v-65.2l-20,11.34-5-2.84V417.66l-2.5,1.42v19.84Z" transform="translate(-199.23 -160.72)"/><path id="path1549" class="cls-6" d="M736.26,502.7V431.83" transform="translate(-199.23 -160.72)"/><path id="path2238" class="cls-16" d="M368,470.1l5-2.83,2.51-1.42,17.53,12.75,17.54-12.75,2.5,1.42,5,2.83-25.05,14.17Z" transform="translate(-199.23 -160.72)"/><path id="path2240" class="cls-17" d="M375.55,468.68V457.34l17.53,9.93,17.54-9.93v11.34l-17.54,9.92Z" transform="translate(-199.23 -160.72)"/><path id="path2242" class="cls-18" d="M375.55,457.34l5-2.83,2.5-1.42,10,8.51,10-8.51,2.51,1.42,5,2.83-17.54,9.93Z" transform="translate(-199.23 -160.72)"/><path id="path2244" class="cls-17" d="M383.06,455.93V441.75l10,5.67,10-5.67v14.18l-10,5.67Z" transform="translate(-199.23 -160.72)"/><path id="path2246" class="cls-17" d="M383.06,441.75l10-5.67,10,5.67-10,5.67Z" transform="translate(-199.23 -160.72)"/><path id="path2248" class="cls-19" d="M388.07,495.61V507l5,2.83,5-2.83V495.61l-5,2.84Z" transform="translate(-199.23 -160.72)"/><path id="path2236-0" class="cls-20" d="M798.89,484.27l-25,14.18-25.05-14.18V470.1l25.05,14.17,25-14.17Z" transform="translate(-199.23 -160.72)"/><path id="path2238-4" class="cls-16" d="M748.79,470.1l5-2.83,2.5-1.42,17.54,12.75,17.53-12.75,2.51,1.42,5,2.83-25,14.17Z" transform="translate(-199.23 -160.72)"/><path id="path2240-8" class="cls-17" d="M756.3,468.68V457.34l17.54,9.93,17.53-9.93v11.34l-17.53,9.92Z" transform="translate(-199.23 -160.72)"/><path id="path2242-7" class="cls-18" d="M756.3,457.34l5-2.83,2.51-1.42,10,8.51,10-8.51,2.5,1.42,5,2.83-17.53,9.93Z" transform="translate(-199.23 -160.72)"/><path id="path2244-0" class="cls-17" d="M763.82,455.93V441.75l10,5.67,10-5.67v14.18l-10,5.67Z" transform="translate(-199.23 -160.72)"/><path id="path2246-8" class="cls-17" d="M763.82,441.75l10-5.67,10,5.67-10,5.67Z" transform="translate(-199.23 -160.72)"/><path id="path2248-6" class="cls-19" d="M768.83,495.61V507l5,2.83,5-2.83V495.61l-5,2.84Z" transform="translate(-199.23 -160.72)"/><path id="path2236-2" class="cls-20" d="M811.41,516.87l-25,14.17-25.05-14.17V502.7l25.05,14.17,25-14.17Z" transform="translate(-199.23 -160.72)"/><path id="path2238-47" class="cls-16" d="M761.31,502.7l5-2.84,2.51-1.41,17.53,12.75,17.54-12.75,2.5,1.41,5,2.84-25,14.17Z" transform="translate(-199.23 -160.72)"/><path id="path2240-9" class="cls-17" d="M768.83,501.28V489.94l17.53,9.92,17.54-9.92v11.34l-17.54,9.92Z" transform="translate(-199.23 -160.72)"/><path id="path2242-3" class="cls-18" d="M768.83,489.94l5-2.83,2.5-1.42,10,8.5,10-8.5,2.51,1.42,5,2.83-17.54,9.92Z" transform="translate(-199.23 -160.72)"/><path id="path2244-9" class="cls-17" d="M776.34,488.53V474.35l10,5.67,10-5.67v14.18l-10,5.66Z" transform="translate(-199.23 -160.72)"/><path id="path2246-2" class="cls-17" d="M776.34,474.35l10-5.67,10,5.67-10,5.67Z" transform="translate(-199.23 -160.72)"/><path id="path2248-8" class="cls-19" d="M781.35,528.21v11.34l5,2.83,5-2.83V528.21l-5,2.83Z" transform="translate(-199.23 -160.72)"/><path id="path2356" class="cls-21" d="M358,492.78v5.67l5,2.83,5-2.83v-5.67l-5,2.83Z" transform="translate(-199.23 -160.72)"/><path id="path2356-1" class="cls-21" d="M403.1,509.78v5.67l5,2.84,5-2.84v-5.67l-5,2.84Z" transform="translate(-199.23 -160.72)"/><path id="path2352-7" class="cls-18" d="M808.91,526.79l15,8.51,15-8.51V515.45l-15,8.51-15-8.51Z" transform="translate(-199.23 -160.72)"/><path id="path2354-8" class="cls-22" d="M808.91,515.45l15-8.5,15,8.5-15,8.51Z" transform="translate(-199.23 -160.72)"/><path id="path2356-9" class="cls-21" d="M818.93,532.46v5.67l5,2.84,5-2.84v-5.67l-5,2.84Z" transform="translate(-199.23 -160.72)"/><path id="path1355" class="cls-15" d="M292.88,512.62l2.51-1.42-2.51-1.42,2.51-1.41,2.5,1.41,2.51-1.41,2.5,1.41-2.5,1.42,2.5,1.42L300.4,514l-2.51-1.42-2.5,1.42Z" transform="translate(-199.23 -160.72)"/><path id="path1355-8" class="cls-15" d="M538.37,611.83l2.51-1.42L538.37,609l2.51-1.42,2.5,1.42,2.51-1.42,2.5,1.42-2.5,1.41,2.5,1.42-2.5,1.42-2.51-1.42-2.5,1.42Z" transform="translate(-199.23 -160.72)"/><path id="path1375" class="cls-19" d="M611,610.41l5-2.83,5,2.83-5,2.84Z" transform="translate(-199.23 -160.72)"/><path id="path1379" class="cls-23" d="M761.31,531l-2.5-1.41L756.3,531l-2.5-1.41v-2.84l2.5-1.41h5l2.51,1.41-2.51,1.42,2.51,1.42Z" transform="translate(-199.23 -160.72)"/><path id="path1379-4" class="cls-23" d="M805.87,531.79l1.55,2.39,2.89-.11,1.55,2.39L810.52,539l-2.89.12-4.44-2.28-1.55-2.39,2.89-.12L803,531.9Z" transform="translate(-199.23 -160.72)"/><path id="path1379-8" class="cls-24" d="M756.3,508.37,753.8,507l-2.51,1.42-2.5-1.42v-2.83l2.5-1.42h5l2.51,1.42-2.51,1.41,2.51,1.42Z" transform="translate(-199.23 -160.72)"/><path id="path1379-1" class="cls-23" d="M378.05,498.45l-2.5-1.42L373,498.45l-2.5-1.42v-2.84l2.5-1.41h5l2.51,1.41-2.51,1.42,2.51,1.42Z" transform="translate(-199.23 -160.72)"/><path id="path1419" class="cls-25" d="M390.58,519.71l2.5-1.42-2.5-1.42,7.51-1.42v5.67l-2.5-1.41-2.51,1.41Z" transform="translate(-199.23 -160.72)"/><path id="path1375-0" class="cls-19" d="M686.16,553.72l5-2.83,5,2.83-5,2.84Z" transform="translate(-199.23 -160.72)"/><path id="path1375-3" class="cls-19" d="M698.69,617.5l5-2.83,5,2.83-5,2.84Z" transform="translate(-199.23 -160.72)"/><path id="path1375-04" class="cls-19" d="M297.89,489.94l5-2.83,5,2.83-5,2.84Z" transform="translate(-199.23 -160.72)"/><path id="path1375-4" class="cls-19" d="M335.47,525.38l5-2.84,5,2.84-5,2.83Z" transform="translate(-199.23 -160.72)"/><path id="path1355-4" class="cls-15" d="M756.3,576.4l2.51-1.42-2.51-1.42,2.51-1.41,2.5,1.41,2.51-1.41,2.5,1.41-2.5,1.42,2.5,1.42-2.5,1.42-2.51-1.42-2.5,1.42Z" transform="translate(-199.23 -160.72)"/><path id="path1469" class="cls-17" d="M348,484.27V478.6l-22.54-12.75v8.5L348,487.11Z" transform="translate(-199.23 -160.72)"/><path id="path1471" class="cls-16" d="M325.45,465.85l10-5.67L358,472.93l-10,5.67Z" transform="translate(-199.23 -160.72)"/><path id="path1473" class="cls-17" d="M358,472.93v8.51l-10,5.67V478.6Z" transform="translate(-199.23 -160.72)"/><path id="path2354" class="cls-22" d="M348,475.77l15-8.5,15,8.5-15,8.5Z" transform="translate(-199.23 -160.72)"/><path id="path2352" class="cls-18" d="M348,487.11l15,8.5,15-8.5V475.77l-15,8.5-15-8.5Z" transform="translate(-199.23 -160.72)"/><path id="path2236" class="cls-20" d="M418.13,484.27l-25.05,14.18L368,484.27V470.1l25.05,14.17,25.05-14.17Z" transform="translate(-199.23 -160.72)"/><path id="path1501" class="cls-16" d="M425.65,502.7V491.36l12.52-7.09v11.34Z" transform="translate(-199.23 -160.72)"/><path id="path1503" class="cls-16" d="M425.65,491.36l-7.52-4.25v11.34l7.52,4.25Z" transform="translate(-199.23 -160.72)"/><path id="path1505" class="cls-17" d="M418.13,487.11,430.66,480l7.51,4.25-12.52,7.09Z" transform="translate(-199.23 -160.72)"/><path id="path2352-3" class="cls-18" d="M393.08,504.12l15,8.5,15-8.5V492.78l-15,8.5-15-8.5Z" transform="translate(-199.23 -160.72)"/><path id="path2354-0" class="cls-22" d="M393.08,492.78l15-8.51,15,8.51-15,8.5Z" transform="translate(-199.23 -160.72)"/><path id="path1510" class="cls-6" d="M302.9,458.76l15,8.51,15-8.51-15-8.5Z" transform="translate(-199.23 -160.72)"/><path id="path1516" class="cls-26" d="M312.92,464.43v8.5l5,2.84,5-2.84v-8.5l-5,2.84Z" transform="translate(-199.23 -160.72)"/><path id="path1518" class="cls-6" d="M307.91,444.59l10,5.67,10-5.67" transform="translate(-199.23 -160.72)"/><path id="path1520" class="cls-6" d="M310.42,423.33l7.51,4.25,7.52-4.25" transform="translate(-199.23 -160.72)"/><path id="path1524" class="cls-6" d="M305.41,451.67l12.52,7.09,12.53-7.09" transform="translate(-199.23 -160.72)"/><path id="path1526" class="cls-17" d="M290.38,482.86v-8.51l-10-5.67v8.51Z" transform="translate(-199.23 -160.72)"/><path id="path1528" class="cls-17" d="M290.38,474.35l22.54-12.75v8.5l-22.54,12.76Z" transform="translate(-199.23 -160.72)"/><path id="path1530" class="cls-22" d="M280.36,468.68l22.54-12.75,10,5.67-22.54,12.75Z" transform="translate(-199.23 -160.72)"/><path id="path1512" class="cls-17" d="M333,458.76l-7.51-24.09h-15l-7.52,24.09,15,8.51Z" transform="translate(-199.23 -160.72)"/><path id="path1514" class="cls-17" d="M330.46,434.67l-12.53,7.08-12.52-7.08,12.52-26.93Z" transform="translate(-199.23 -160.72)"/><path id="path1534" class="cls-16" d="M335.47,516.87V502.7l-12.53-7.09-12.52,7.09v14.17L322.94,524Z" transform="translate(-199.23 -160.72)"/><path id="path1536" class="cls-22" d="M310.42,502.7l12.52,7.08,12.53-7.08-12.53-7.09Z" transform="translate(-199.23 -160.72)"/><path id="path1501-3" class="cls-16" d="M606,584.9V573.56l12.53-7.08v11.34Z" transform="translate(-199.23 -160.72)"/><path id="path1503-1" class="cls-16" d="M606,573.56l-7.51-4.25v11.34L606,584.9Z" transform="translate(-199.23 -160.72)"/><path id="path1505-7" class="cls-17" d="M598.49,569.31,611,562.23l7.52,4.25L606,573.56Z" transform="translate(-199.23 -160.72)"/><path id="path1469-5" class="cls-17" d="M591,584.9v-5.67l-22.55-12.75V575L591,587.74Z" transform="translate(-199.23 -160.72)"/><path id="path1471-9" class="cls-16" d="M568.43,566.48l10-5.67L601,573.56l-10,5.67Z" transform="translate(-199.23 -160.72)"/><path id="path1577" class="cls-17" d="M591,587.74l7.51-4.25,2.5-1.42v-8.51l-10,5.67Z" transform="translate(-199.23 -160.72)"/><path id="path1585" class="cls-10" d="M312.92,606.16l7.52,4.25v-5.66l-2.51-1.42v-2.84l-5-2.83Z" transform="translate(-199.23 -160.72)"/><path id="path1587" class="cls-27" d="M405.61,658.6v-2.83l5,2.83v-5.67l2.5,1.42v8.51Z" transform="translate(-199.23 -160.72)"/><path id="path1589" class="cls-10" d="M463.22,696.87V694l5,2.83v2.84Z" transform="translate(-199.23 -160.72)"/><path id="path1591" class="cls-28" d="M375.55,644.43v-8.5l-10-2.84v8.51Z" transform="translate(-199.23 -160.72)"/><path id="path1591-6" class="cls-28" d="M548.39,736.56l3.22-7.9-8.23-6.28-3.22,7.9Z" transform="translate(-199.23 -160.72)"/><path id="path1589-2" class="cls-10" d="M538.37,739.39v-2.83l5,2.83v2.84Z" transform="translate(-199.23 -160.72)"/><path id="path1589-1" class="cls-10" d="M353,626v-2.84l5,2.84v2.83Z" transform="translate(-199.23 -160.72)"/><path id="path1629" class="cls-10" d="M505.81,712.46v-2.83l2.5,1.41v2.84Z" transform="translate(-199.23 -160.72)"/><path id="path1629-7" class="cls-10" d="M400.6,652.93V650.1l2.5,1.42v2.83Z" transform="translate(-199.23 -160.72)"/><path id="path1629-8" class="cls-10" d="M245.29,570.73V567.9l2.5,1.41v2.84Z" transform="translate(-199.23 -160.72)"/><path id="path1629-5" class="cls-10" d="M280.36,582.07v-2.84l2.5,1.42v2.84Z" transform="translate(-199.23 -160.72)"/><path id="path1658" class="cls-29" d="M628.55,728.05l5-2.83v5.67l-5,2.83Z" transform="translate(-199.23 -160.72)"/><path id="path1658-7" class="cls-29" d="M708.71,677l5-2.84v5.67l-5,2.84Z" transform="translate(-199.23 -160.72)"/><path id="path1658-4" class="cls-29" d="M813.92,631.67l5-2.83v5.67l-5,2.83Z" transform="translate(-199.23 -160.72)"/><path id="path1681" class="cls-30" d="M656.1,709.63v8.5l10-5.67v-5.67l-2.5,1.42v-2.83l-2.51,1.41v2.84l-2.5,1.41v-2.83Z" transform="translate(-199.23 -160.72)"/><path id="path1683" class="cls-31" d="M741.27,667.11v5.67l15-5.67L753.8,660Z" transform="translate(-199.23 -160.72)"/><path id="path1694" class="cls-32" d="M834,620.34l10-5.67V609l-10,5.67Z" transform="translate(-199.23 -160.72)"/><path id="path1694-1" class="cls-32" d="M688.67,708.21l10-5.67v-5.67l-10,5.67Z" transform="translate(-199.23 -160.72)"/><path id="path1711" class="cls-33" d="M771.33,647.27v-2.84l2.51-1.42v2.84Z" transform="translate(-199.23 -160.72)"/><path id="path1711-8" class="cls-4" d="M716.22,689.78V687l2.51-1.42v2.84Z" transform="translate(-199.23 -160.72)"/><path id="path1711-5" class="cls-28" d="M643.58,730.89v-2.84l2.5-1.41v2.83Z" transform="translate(-199.23 -160.72)"/><path id="path1711-9" class="cls-4" d="M601,755v-2.83l2.5-1.42v2.83Z" transform="translate(-199.23 -160.72)"/><path id="path1711-53" class="cls-34" d="M633.56,711v-2.83l2.5-1.42v2.84Z" transform="translate(-199.23 -160.72)"/><path id="path1711-88" class="cls-34" d="M696.18,675.61v-2.83l2.51-1.42v2.83Z" transform="translate(-199.23 -160.72)"/><path id="path1711-3" class="cls-34" d="M746.28,647.27v-2.84l2.51-1.42v2.84Z" transform="translate(-199.23 -160.72)"/><path id="path1711-1" class="cls-35" d="M796.38,618.92v-2.84l2.51-1.41v2.83Z" transform="translate(-199.23 -160.72)"/><path id="path1711-89" class="cls-35" d="M846.48,590.57v-2.83l2.51-1.42v2.83Z" transform="translate(-199.23 -160.72)"/><path id="path1711-6" class="cls-34" d="M641.07,701.12v-2.83l2.51-1.42v2.84Z" transform="translate(-199.23 -160.72)"/><path id="path1711-4" class="cls-34" d="M656.1,701.12v-2.83l2.51-1.42v2.84Z" transform="translate(-199.23 -160.72)"/><path id="path1629-7-3" class="cls-34" d="M262.82,560.81V558l2.51,1.42v2.84Z" transform="translate(-199.23 -160.72)"/><path id="path1629-7-33" class="cls-36" d="M275.35,559.39v-2.83l2.5,1.41v2.84Z" transform="translate(-199.23 -160.72)"/><path id="path1629-7-8" class="cls-34" d="M287.87,575v-2.83l2.51,1.41v2.84Z" transform="translate(-199.23 -160.72)"/><path id="path1629-7-6" class="cls-36" d="M325.45,596.24v-2.83l2.5,1.41v2.84Z" transform="translate(-199.23 -160.72)"/><path id="path1629-7-0" class="cls-37" d="M312.92,580.65v-2.83l2.51,1.41v2.84Z" transform="translate(-199.23 -160.72)"/><path id="path1629-7-4" class="cls-36" d="M363,617.5v-2.83l2.51,1.41v2.84Z" transform="translate(-199.23 -160.72)"/><path id="path1629-7-88" class="cls-36" d="M450.7,667.11v-2.84l2.5,1.42v2.84Z" transform="translate(-199.23 -160.72)"/><path id="path1629-7-89" class="cls-36" d="M538.37,713.88V711l2.51,1.42v2.84Z" transform="translate(-199.23 -160.72)"/><path id="path1849" class="cls-38" d="M455.71,403.49l-12.53-7.09-5,2.83,12.53,7.09Z" transform="translate(-199.23 -160.72)"/><path id="path1851" class="cls-38" d="M455.71,403.49V412l-5,2.83-12.53-7.08v-8.51l12.53,7.09Z" transform="translate(-199.23 -160.72)"/><path id="path1853" class="cls-6" d="M450.7,406.32v8.5" transform="translate(-199.23 -160.72)"/><path id="path1855" class="cls-38" d="M448.19,413.41v19.84l-2.5-1.42V412Z" transform="translate(-199.23 -160.72)"/><path id="path1857" class="cls-39" d="M450.7,400.65v-2.83l-2.51-1.42v2.83Z" transform="translate(-199.23 -160.72)"/><path id="path1861" class="cls-38" d="M460.72,431.83l2.5,1.42,10-5.67v-2.83Z" transform="translate(-199.23 -160.72)"/><path id="path1863" class="cls-38" d="M460.72,434.67l2.5,1.41,10-5.67v-2.83l-10,5.67-2.5-1.42Z" transform="translate(-199.23 -160.72)"/><path id="path1865" class="cls-6" d="M463.22,433.25v2.83" transform="translate(-199.23 -160.72)"/><path id="path6297" class="cls-40" d="M523.34,407.74l5,2.83v25.51l2.51,1.42V412l5,2.83V446l-12.53-7.09Z" transform="translate(-199.23 -160.72)"/></g></svg>