<?xml version="1.0" encoding="UTF-8" standalone="no"?>
<!-- Created with Inkscape (http://www.inkscape.org/) -->

<svg
   xmlns:dc="http://purl.org/dc/elements/1.1/"
   xmlns:cc="http://creativecommons.org/ns#"
   xmlns:rdf="http://www.w3.org/1999/02/22-rdf-syntax-ns#"
   xmlns:svg="http://www.w3.org/2000/svg"
   xmlns="http://www.w3.org/2000/svg"
   xmlns:sodipodi="http://sodipodi.sourceforge.net/DTD/sodipodi-0.dtd"
   xmlns:inkscape="http://www.inkscape.org/namespaces/inkscape"
   width="297mm"
   height="220mm"
   viewBox="0 0 297 220"
   version="1.1"
   id="svg8"
   inkscape:version="0.92.2 2405546, 2018-03-11"
   sodipodi:docname="fofo.svg">
  <defs
     id="defs2" />
  <sodipodi:namedview
     id="base"
     pagecolor="#ffffff"
     bordercolor="#666666"
     borderopacity="1.0"
     inkscape:pageopacity="0.0"
     inkscape:pageshadow="2"
     inkscape:zoom="1"
     inkscape:cx="533.1354"
     inkscape:cy="468.55876"
     inkscape:document-units="mm"
     inkscape:current-layer="layer1"
     showgrid="true"
     inkscape:window-width="1920"
     inkscape:window-height="1006"
     inkscape:window-x="0"
     inkscape:window-y="0"
     inkscape:window-maximized="1">
    <inkscape:grid
       units="mm"
       empspacing="5"
       type="axonomgrid"
       id="grid1366" />
  </sodipodi:namedview>
  <metadata
     id="metadata5">
    <rdf:RDF>
      <cc:Work
         rdf:about="">
        <dc:format>image/svg+xml</dc:format>
        <dc:type
           rdf:resource="http://purl.org/dc/dcmitype/StillImage" />
        <dc:title></dc:title>
      </cc:Work>
    </rdf:RDF>
  </metadata>
  <g
     inkscape:label="Layer 1"
     inkscape:groupmode="layer"
     id="layer1"
     transform="translate(0,-77)">
    <path
       style="fill:#6c6753;stroke:#000000;stroke-width:0.26726952px;stroke-linecap:butt;stroke-linejoin:miter;stroke-opacity:1"
       d="m 112.39033,166.37552 v -20 l 57.44047,32.5 v 20 z"
       id="path1370"
       inkscape:connector-curvature="0" />
    <path
       style="fill:#6c6753;stroke:#000000;stroke-width:0.26726952px;stroke-linecap:butt;stroke-linejoin:miter;stroke-opacity:1"
       d="m 169.8308,178.87552 57.44046,-32.5 v 20 l -57.44046,32.5 z"
       id="path1374"
       inkscape:connector-curvature="0" />
    <path
       style="fill:#c8c4b7;fill-opacity:1;stroke:#000000;stroke-width:0.26726952px;stroke-linecap:butt;stroke-linejoin:miter;stroke-opacity:1"
       d="m 112.39033,146.37552 57.44047,-32.49998 57.44046,32.49998 -57.44046,32.5 z"
       id="path1376"
       inkscape:connector-curvature="0" />
    <path
       style="fill:#c8beb7;fill-opacity:1;stroke:#000000;stroke-width:0.26726952px;stroke-linecap:butt;stroke-linejoin:miter;stroke-opacity:1"
       d="m 112.39033,171.37552 v -39.99998 l 8.837,5 v 39.99998 z"
       id="path1392"
       inkscape:connector-curvature="0" />
    <path
       style="fill:#c8beb7;stroke:#000000;stroke-width:0.26726952px;stroke-linecap:butt;stroke-linejoin:miter;stroke-opacity:1"
       d="m 125.64582,178.87552 v -40 l 30.92949,17.5 v 40 z"
       id="path1394"
       inkscape:connector-curvature="0" />
    <path
       style="fill:#c8beb7;stroke:#000000;stroke-width:0.26726952px;stroke-linecap:butt;stroke-linejoin:miter;stroke-opacity:1"
       d="m 160.9938,198.87552 v -40 l 8.837,5 v 40 z"
       id="path1396"
       inkscape:connector-curvature="0" />
    <path
       style="fill:#c8beb7;stroke:#000000;stroke-width:0.26726952px;stroke-linecap:butt;stroke-linejoin:miter;stroke-opacity:1"
       d="m 112.39033,131.37554 1.76741,-1 8.83699,5 v 11.20236 28.79762 l -1.7674,1 v -39.99998 z"
       id="path1398"
       inkscape:connector-curvature="0"
       sodipodi:nodetypes="cccccccc" />
    <path
       style="fill:#c8beb7;stroke:#000000;stroke-width:0.26726952px;stroke-linecap:butt;stroke-linejoin:miter;stroke-opacity:1"
       d="m 125.64582,138.87552 1.76741,-1 30.92948,17.5 v 40 l -1.7674,1 v -40 z"
       id="path1400"
       inkscape:connector-curvature="0"
       sodipodi:nodetypes="ccccccc" />
    <path
       style="fill:#c8beb7;stroke:#000000;stroke-width:0.26726952px;stroke-linecap:butt;stroke-linejoin:miter;stroke-opacity:1"
       d="m 160.9938,158.87552 1.7674,-1 8.837,5 v 40 l -1.7674,1 v -40 z"
       id="path1402"
       inkscape:connector-curvature="0"
       sodipodi:nodetypes="ccccccc" />
    <path
       style="fill:#c8beb7;stroke:#000000;stroke-width:0.26726952px;stroke-linecap:butt;stroke-linejoin:miter;stroke-opacity:1"
       d="m 176.0167,202.37552 v -40 l 8.837,-5 v 40 z"
       id="path1404"
       inkscape:connector-curvature="0" />
    <path
       style="fill:#c8beb7;stroke:#000000;stroke-width:0.26726952px;stroke-linecap:butt;stroke-linejoin:miter;stroke-opacity:1"
       d="m 184.8537,157.37552 -1.7674,-1 -8.837,5 v 40 l 1.7674,1 v -40 z"
       id="path1406"
       inkscape:connector-curvature="0" />
    <path
       style="fill:#c8beb7;stroke:#000000;stroke-width:0.26726952px;stroke-linecap:butt;stroke-linejoin:miter;stroke-opacity:1"
       d="m 188.38848,195.37552 v -40 l 29.16208,-16.5 v 40 z"
       id="path1418"
       inkscape:connector-curvature="0" />
    <path
       style="fill:#c8beb7;stroke:#000000;stroke-width:0.26726952px;stroke-linecap:butt;stroke-linejoin:miter;stroke-opacity:1"
       d="m 188.38848,195.37552 -1.7674,-1 v -40 l 29.16209,-16.5 1.76739,1 -29.16208,16.5 z"
       id="path1420"
       inkscape:connector-curvature="0" />
    <path
       style="fill:#c8beb7;stroke:#000000;stroke-width:0.26726952px;stroke-linecap:butt;stroke-linejoin:miter;stroke-opacity:1"
       d="m 220.20166,177.37552 v -40 l 8.837,-4.99998 v 39.99998 z"
       id="path1404-6"
       inkscape:connector-curvature="0" />
    <path
       style="fill:#c8beb7;stroke:#000000;stroke-width:0.26726952px;stroke-linecap:butt;stroke-linejoin:miter;stroke-opacity:1"
       d="m 229.03866,132.37554 -1.7674,-1 -8.837,5 v 39.99998 l 1.7674,1 v -40 z"
       id="path1406-1"
       inkscape:connector-curvature="0" />
    <path
       style="fill:#e3e2db;stroke:#000000;stroke-width:0.26726952px;stroke-linecap:butt;stroke-linejoin:miter;stroke-opacity:1"
       d="m 126.52953,171.37552 v -13 l 4.41849,2.5 v 2 l -2.6511,-1.5 v 2 l 2.6511,1.5 v 2 l -2.6511,-1.5 v 7 z"
       id="path1452"
       inkscape:connector-curvature="0" />
    <path
       style="fill:#e3e2db;stroke:#000000;stroke-width:0.26726952px;stroke-linecap:butt;stroke-linejoin:miter;stroke-opacity:1"
       d="m 131.83172,174.37552 v -13 l 4.4185,2.5 v 13 z"
       id="path1477"
       inkscape:connector-curvature="0" />
    <path
       style="fill:none;stroke:#000000;stroke-width:0.26726952px;stroke-linecap:butt;stroke-linejoin:miter;stroke-opacity:1"
       d="m 133.59912,173.37552 v -8 l 0.8837,0.5 v 8 z"
       id="path1479"
       inkscape:connector-curvature="0" />
    <path
       style="fill:#e3e2db;stroke:#000000;stroke-width:0.26726952px;stroke-linecap:butt;stroke-linejoin:miter;stroke-opacity:1"
       d="m 162.7612,199.87552 1e-5,25 7.06959,4 8.83699,-5 v -23 l -2.65109,1.5 -1.76741,-1 v -5 l -2.65109,1.5 v 5 l -1.7674,1 z"
       id="path1485"
       inkscape:connector-curvature="0"
       sodipodi:nodetypes="cccccccccccc" />
    <path
       style="fill:none;stroke:#000000;stroke-width:0.26726952px;stroke-linecap:butt;stroke-linejoin:miter;stroke-opacity:1"
       d="m 169.8308,228.87552 v -25"
       id="path1487"
       inkscape:connector-curvature="0"
       sodipodi:nodetypes="cc" />
    <path
       style="fill:#cccccc;fill-opacity:1;stroke:#000000;stroke-width:0.26726952px;stroke-linecap:butt;stroke-linejoin:miter;stroke-opacity:1"
       d="m 107.97185,238.87552 39.76646,-22.5 22.09249,12.5 57.44046,-32.5 v -23 l -7.06959,4 -1.7674,-1 v -5 l -0.88371,0.5 v 7 l -29.16208,16.5 -1.7674,-1 v -5 l -1.76739,1 v 7 l -6.1859,3.5 v 23 l -8.83699,5 -7.0696,-4 v -25 l -1.7674,-1 v -5 l -2.65109,-1.5 v 3 l -1.7674,1 -30.92949,-17.5 v -5 l -2.65109,-1.5 v 3 l -1.7674,1 -8.837,-5 v 25 l 8.837,5 -35.34796,20 -4.418498,2.5 z"
       id="path1489"
       inkscape:connector-curvature="0" />
    <path
       style="fill:#e9ddaf;stroke:#000000;stroke-width:0.26726952px;stroke-linecap:butt;stroke-linejoin:miter;stroke-opacity:1"
       d="m 112.39033,196.37552 22.09249,-12.5 -8.837,-5 v -5 l -2.65109,-1.5 v 3 l -1.7674,1 -8.837,-5 z"
       id="path1491"
       inkscape:connector-curvature="0" />
    <path
       style="fill:#d5d5ff;stroke:#000000;stroke-width:0.26726952px;stroke-linecap:butt;stroke-linejoin:miter;stroke-opacity:1"
       d="m 121.22733,191.37552 v -15 l 4.41849,-2.5 v 5 l 4.4185,2.5 v 5 z"
       id="path1493"
       inkscape:connector-curvature="0" />
    <path
       style="fill:#e3e2db;stroke:#000000;stroke-width:0.26726952px;stroke-linecap:butt;stroke-linejoin:miter;stroke-opacity:1"
       d="m 131.83172,161.37552 0.8837,-0.5 4.4185,2.5 v 13 l -0.8837,0.5 v -13 z"
       id="path1495"
       inkscape:connector-curvature="0" />
    <path
       style="fill:#e3e2db;stroke:#000000;stroke-width:0.26726952px;stroke-linecap:butt;stroke-linejoin:miter;stroke-opacity:1"
       d="m 126.52952,158.37552 0.88371,-0.5 4.41849,2.5 v 2 l -0.8837,0.5 -1.7674,-1 v 1 l 2.6511,1.5 v 2 l -0.8837,0.5 -1.7674,-1 v 6 l -0.88369,0.5 v -7 l 2.65109,1.5 v -2 l -2.65109,-1.5 v -2 l 2.65109,1.5 v -2 z"
       id="path1497"
       inkscape:connector-curvature="0" />
    <path
       style="fill:#e3e2db;stroke:#000000;stroke-width:0.26726952px;stroke-linecap:butt;stroke-linejoin:miter;stroke-opacity:1"
       d="m 137.13392,164.37552 4.4185,2.5 v 5 l -0.8837,-0.5 v 8 l -1.7674,-1 v -8 8 l -1.7674,-1 z"
       id="path1507"
       inkscape:connector-curvature="0" />
    <path
       style="fill:#e3e2db;stroke:#000000;stroke-width:0.26726952px;stroke-linecap:butt;stroke-linejoin:miter;stroke-opacity:1"
       d="m 137.13392,164.37552 0.8837,-0.5 4.4185,2.5 v 5 l -0.8837,0.5 v 7 l -0.8837,0.5 v -8 l 0.8837,0.5 v -5 z"
       id="path1509"
       inkscape:connector-curvature="0" />
    <path
       style="fill:#e3e2db;stroke:#000000;stroke-width:0.26726952px;stroke-linecap:butt;stroke-linejoin:miter;stroke-opacity:1"
       d="m 147.73831,183.37552 v -13 l 1.7674,1 v 9 -9 l 1.7674,1 v 9 -9 l 1.7674,1 v 13 l -1.7674,-1 v -2 l -1.7674,-1 v 2 z"
       id="path1511"
       inkscape:connector-curvature="0"
       sodipodi:nodetypes="ccccccccccccccc" />
    <path
       style="fill:#e3e2db;stroke:#000000;stroke-width:0.26726952px;stroke-linecap:butt;stroke-linejoin:miter;stroke-opacity:1"
       d="m 147.73831,170.37552 0.8837,-0.5 5.3022,3 v 13 l -0.8837,0.5 v -13 z"
       id="path1513"
       inkscape:connector-curvature="0" />
    <path
       style="fill:#e3e2db;stroke:#000000;stroke-width:0.26726952px;stroke-linecap:butt;stroke-linejoin:miter;stroke-opacity:1"
       d="m 149.50571,184.37552 0.8837,-0.5 v -1 l -0.8837,-0.5 z"
       id="path1515"
       inkscape:connector-curvature="0" />
    <path
       style="fill:none;stroke:#000000;stroke-width:0.26726952px;stroke-linecap:butt;stroke-linejoin:miter;stroke-opacity:1"
       d="m 125.64582,188.87552 v -15"
       id="path1517"
       inkscape:connector-curvature="0" />
    <path
       style="fill:#e9ddaf;fill-opacity:1;stroke:#000000;stroke-width:0.26726952px;stroke-linecap:butt;stroke-linejoin:miter;stroke-opacity:1"
       d="m 112.39033,196.37552 -8.83697,5 -30.929481,-17.5 V 98.875541 l 30.929481,17.499999 8.83697,-5 v 20 z"
       id="path1519"
       inkscape:connector-curvature="0" />
    <path
       style="fill:#ac9d93;stroke:#000000;stroke-width:0.26726952px;stroke-linecap:butt;stroke-linejoin:miter;stroke-opacity:1"
       d="M 125.64583,103.87554 94.71637,86.375545 72.623879,98.875541 103.55336,116.37554 Z"
       id="path1521"
       inkscape:connector-curvature="0"
       sodipodi:nodetypes="ccccc" />
    <path
       style="fill:none;stroke:#000000;stroke-width:0.26726952px;stroke-linecap:butt;stroke-linejoin:miter;stroke-opacity:1"
       d="m 103.55336,116.37554 v 84.99998"
       id="path1523"
       inkscape:connector-curvature="0" />
    <path
       style="fill:#e5ff80;stroke:#000000;stroke-width:0.26726952px;stroke-linecap:butt;stroke-linejoin:miter;stroke-opacity:1"
       d="m 81.460872,223.87552 -39.766472,-22.5 30.929479,-17.5 30.929481,17.5 8.83697,-5 8.837,5 z"
       id="path1525"
       inkscape:connector-curvature="0" />
    <path
       style="fill:#e5ff80;stroke:#000000;stroke-width:0.26726952px;stroke-linecap:butt;stroke-linejoin:miter;stroke-opacity:1"
       d="m 107.97185,238.87552 57.44045,32.5 97.20693,-55 -35.34797,-20 -57.44046,32.5 -22.09249,-12.5 z"
       id="path1527"
       inkscape:connector-curvature="0" />
    <path
       style="fill:#aca793;stroke:#000000;stroke-width:0.26726952px;stroke-linecap:butt;stroke-linejoin:miter;stroke-opacity:1"
       d="m 112.39033,171.37552 -8.83697,5 v -59.99998 l 22.09246,-12.5 v 34.99998 l -2.65109,1.5 v -4.99998 l -8.83699,-5 -1.76741,1 z"
       id="path1529"
       inkscape:connector-curvature="0" />
    <path
       style="fill:#ff7f2a;fill-opacity:1;stroke:#000000;stroke-width:0.26726952px;stroke-linecap:butt;stroke-linejoin:miter;stroke-opacity:1"
       d="m 229.03866,137.37552 33.58057,19 v 60 l -35.34797,-20 v -23 l 1.7674,-1 z"
       id="path1531"
       inkscape:connector-curvature="0" />
    <path
       style="fill:#504416;stroke:#000000;stroke-width:0.26726952px;stroke-linecap:butt;stroke-linejoin:miter;stroke-opacity:1"
       d="m 41.6944,201.37552 v 10 l 123.7179,70.00001 97.20693,-55.00001 v -10 l -97.20693,55 z"
       id="path1533"
       inkscape:connector-curvature="0" />
    <path
       style="fill:none;stroke:#000000;stroke-width:0.26726952px;stroke-linecap:butt;stroke-linejoin:miter;stroke-opacity:1"
       d="m 165.4123,271.37552 v 10.00001"
       id="path1535"
       inkscape:connector-curvature="0" />
    <path
       style="fill:#0b50d7;fill-opacity:0.72277228;stroke:#000000;stroke-width:0.26726952px;stroke-linecap:butt;stroke-linejoin:miter;stroke-opacity:1"
       d="m 41.6944,211.37552 v 5 l 123.7179,70 97.20693,-55 v -5 l -97.20693,55.00001 z"
       id="path1541"
       inkscape:connector-curvature="0" />
    <path
       style="fill:#aa8800;stroke:#000000;stroke-width:0.26726952px;stroke-linecap:butt;stroke-linejoin:miter;stroke-opacity:1"
       d="m 41.6944,216.37552 v 10 l 123.7179,70 97.20693,-55 v -10 l -97.20693,55 z"
       id="path1543"
       inkscape:connector-curvature="0" />
    <path
       style="fill:none;stroke:#000000;stroke-width:0.26726952px;stroke-linecap:butt;stroke-linejoin:miter;stroke-opacity:1"
       d="m 165.4123,281.37553 v 14.99999"
       id="path1545"
       inkscape:connector-curvature="0" />
    <path
       style="fill:#e3e2db;stroke:#000000;stroke-width:0.26726952px;stroke-linecap:butt;stroke-linejoin:miter;stroke-opacity:1"
       d="m 212.24837,181.87552 v 16 l 6.1859,3.5 8.83699,-5 v -23 l -7.06959,4 -1.7674,-1 v -5 l -0.88371,0.5 v 7 z"
       id="path1547"
       inkscape:connector-curvature="0"
       sodipodi:nodetypes="ccccccccccc" />
    <path
       style="fill:none;stroke:#000000;stroke-width:0.26726952px;stroke-linecap:butt;stroke-linejoin:miter;stroke-opacity:1"
       d="m 218.43427,201.37552 v -25"
       id="path1549"
       inkscape:connector-curvature="0" />
    <path
       style="fill:#88aa00;stroke:#000000;stroke-width:0.26726952px;stroke-linecap:butt;stroke-linejoin:miter;stroke-opacity:1"
       d="m 88.53047,189.87552 1.7674,-1 0.8837,-0.5 6.1859,4.5 6.18589,-4.5 0.8837,0.5 1.76739,1 -8.83698,5 z"
       id="path2238"
       inkscape:connector-curvature="0"
       sodipodi:nodetypes="ccccccccc" />
    <path
       style="fill:#668000;stroke:#000000;stroke-width:0.26726952px;stroke-linecap:butt;stroke-linejoin:miter;stroke-opacity:1"
       d="m 91.18157,189.37552 v -4 l 6.1859,3.5 6.18589,-3.5 v 4 l -6.18589,3.5 z"
       id="path2240"
       inkscape:connector-curvature="0"
       sodipodi:nodetypes="ccccccc" />
    <path
       style="fill:#89a02c;stroke:#000000;stroke-width:0.26726952px;stroke-linecap:butt;stroke-linejoin:miter;stroke-opacity:1"
       d="m 91.18157,185.37552 1.7674,-1 0.8837,-0.5 3.5348,3 3.53479,-3 0.8837,0.5 1.7674,1 -6.18589,3.5 z"
       id="path2242"
       inkscape:connector-curvature="0"
       sodipodi:nodetypes="ccccccccc" />
    <path
       style="fill:#668000;stroke:#000000;stroke-width:0.26726952px;stroke-linecap:butt;stroke-linejoin:miter;stroke-opacity:1"
       d="m 93.83267,184.87552 v -2 -3 l 3.5348,2 3.53479,-2 c 0,1.66667 1e-5,5.07275 0,5 l -3.53479,2 z"
       id="path2244"
       inkscape:connector-curvature="0"
       sodipodi:nodetypes="cccccccc" />
    <path
       style="fill:#668000;stroke:#000000;stroke-width:0.26726952px;stroke-linecap:butt;stroke-linejoin:miter;stroke-opacity:1"
       d="m 93.83267,179.87552 3.5348,-2 3.53479,2 -3.53479,2 z"
       id="path2246"
       inkscape:connector-curvature="0"
       sodipodi:nodetypes="ccccc" />
    <path
       style="fill:#554400;stroke:#000000;stroke-width:0.26726952px;stroke-linecap:butt;stroke-linejoin:miter;stroke-opacity:1"
       d="m 95.60007,198.87552 v 4 l 1.7674,1 1.76739,-1 v -4 l -1.76739,1 z"
       id="path2248"
       inkscape:connector-curvature="0" />
    <path
       style="fill:#677821;stroke:#000000;stroke-width:0.26726952px;stroke-linecap:butt;stroke-linejoin:miter;stroke-opacity:1"
       d="m 240.52675,194.87552 -8.83699,5 -8.837,-5 v -5 l 8.837,5 8.83699,-5 z"
       id="path2236-0"
       inkscape:connector-curvature="0" />
    <path
       style="fill:#88aa00;stroke:#000000;stroke-width:0.26726952px;stroke-linecap:butt;stroke-linejoin:miter;stroke-opacity:1"
       d="m 222.85276,189.87552 1.7674,-1 0.8837,-0.5 6.1859,4.5 6.1859,-4.5 0.88369,0.5 1.7674,1 -8.83699,5 z"
       id="path2238-4"
       inkscape:connector-curvature="0"
       sodipodi:nodetypes="ccccccccc" />
    <path
       style="fill:#668000;stroke:#000000;stroke-width:0.26726952px;stroke-linecap:butt;stroke-linejoin:miter;stroke-opacity:1"
       d="m 225.50386,189.37552 v -4 l 6.1859,3.5 6.1859,-3.5 v 4 l -6.1859,3.5 z"
       id="path2240-8"
       inkscape:connector-curvature="0"
       sodipodi:nodetypes="ccccccc" />
    <path
       style="fill:#89a02c;stroke:#000000;stroke-width:0.26726952px;stroke-linecap:butt;stroke-linejoin:miter;stroke-opacity:1"
       d="m 225.50386,185.37552 1.7674,-1 0.8837,-0.5 3.5348,3 3.53479,-3 0.88371,0.5 1.7674,1 -6.1859,3.5 z"
       id="path2242-7"
       inkscape:connector-curvature="0"
       sodipodi:nodetypes="ccccccccc" />
    <path
       style="fill:#668000;stroke:#000000;stroke-width:0.26726952px;stroke-linecap:butt;stroke-linejoin:miter;stroke-opacity:1"
       d="m 228.15496,184.87552 v -2 -3 l 3.5348,2 3.53479,-2 c 0,1.66667 1e-5,5.07275 0,5 l -3.53479,2 z"
       id="path2244-0"
       inkscape:connector-curvature="0"
       sodipodi:nodetypes="cccccccc" />
    <path
       style="fill:#668000;stroke:#000000;stroke-width:0.26726952px;stroke-linecap:butt;stroke-linejoin:miter;stroke-opacity:1"
       d="m 228.15496,179.87552 3.5348,-2 3.53479,2 -3.53479,2 z"
       id="path2246-8"
       inkscape:connector-curvature="0"
       sodipodi:nodetypes="ccccc" />
    <path
       style="fill:#554400;stroke:#000000;stroke-width:0.26726952px;stroke-linecap:butt;stroke-linejoin:miter;stroke-opacity:1"
       d="m 229.92236,198.87552 v 4 l 1.7674,1 1.7674,-1 v -4 l -1.7674,1 z"
       id="path2248-6"
       inkscape:connector-curvature="0" />
    <path
       style="fill:#677821;stroke:#000000;stroke-width:0.26726952px;stroke-linecap:butt;stroke-linejoin:miter;stroke-opacity:1"
       d="m 244.94524,206.37552 -8.83699,5 -8.837,-5 v -5 l 8.837,5 8.83699,-5 z"
       id="path2236-2"
       inkscape:connector-curvature="0" />
    <path
       style="fill:#88aa00;stroke:#000000;stroke-width:0.26726952px;stroke-linecap:butt;stroke-linejoin:miter;stroke-opacity:1"
       d="m 227.27125,201.37552 1.7674,-1 0.88371,-0.5 6.18589,4.5 6.1859,-4.5 0.88369,0.5 1.7674,1 -8.83699,5 z"
       id="path2238-47"
       inkscape:connector-curvature="0"
       sodipodi:nodetypes="ccccccccc" />
    <path
       style="fill:#668000;stroke:#000000;stroke-width:0.26726952px;stroke-linecap:butt;stroke-linejoin:miter;stroke-opacity:1"
       d="m 229.92235,200.87552 v -4 l 6.1859,3.5 6.18588,-3.5 v 4 l -6.18588,3.5 z"
       id="path2240-9"
       inkscape:connector-curvature="0"
       sodipodi:nodetypes="ccccccc" />
    <path
       style="fill:#89a02c;stroke:#000000;stroke-width:0.26726952px;stroke-linecap:butt;stroke-linejoin:miter;stroke-opacity:1"
       d="m 229.92235,196.87552 1.7674,-1 0.8837,-0.5 3.5348,3 3.5348,-3 0.88369,0.5 1.76739,1 -6.18588,3.5 z"
       id="path2242-3"
       inkscape:connector-curvature="0"
       sodipodi:nodetypes="ccccccccc" />
    <path
       style="fill:#668000;stroke:#000000;stroke-width:0.26726952px;stroke-linecap:butt;stroke-linejoin:miter;stroke-opacity:1"
       d="m 232.57344,196.37552 v -2 -3 l 3.53481,2 3.53479,-2 c 0,1.66667 0,5.07275 0,5 l -3.53479,2 z"
       id="path2244-9"
       inkscape:connector-curvature="0"
       sodipodi:nodetypes="cccccccc" />
    <path
       style="fill:#668000;stroke:#000000;stroke-width:0.26726952px;stroke-linecap:butt;stroke-linejoin:miter;stroke-opacity:1"
       d="m 232.57344,191.37552 3.5348,-2 3.5348,2 -3.53479,2 z"
       id="path2246-2"
       inkscape:connector-curvature="0"
       sodipodi:nodetypes="ccccc" />
    <path
       style="fill:#554400;stroke:#000000;stroke-width:0.26726952px;stroke-linecap:butt;stroke-linejoin:miter;stroke-opacity:1"
       d="m 234.34084,210.37552 v 4 l 1.76741,1 1.7674,-1 v -4 l -1.7674,1 z"
       id="path2248-8"
       inkscape:connector-curvature="0" />
    <path
       style="fill:#784421;stroke:#000000;stroke-width:0.26726952px;stroke-linecap:butt;stroke-linejoin:miter;stroke-opacity:1"
       d="m 84.995671,197.87552 v 2 l 1.767398,1 1.767401,-1 v -2 l -1.767401,1 z"
       id="path2356"
       inkscape:connector-curvature="0" />
    <path
       style="fill:#784421;stroke:#000000;stroke-width:0.26726952px;stroke-linecap:butt;stroke-linejoin:miter;stroke-opacity:1"
       d="m 100.90226,203.87552 v 2 l 1.7674,1 1.7674,-1 v -2 l -1.7674,1 z"
       id="path2356-1"
       inkscape:connector-curvature="0" />
    <path
       style="fill:#89a02c;stroke:#000000;stroke-width:0.26726952px;stroke-linecap:butt;stroke-linejoin:miter;stroke-opacity:1"
       d="m 244.06155,209.87552 5.3022,3 5.30219,-3 v -4 l -5.30219,3 -5.3022,-3 z"
       id="path2352-7"
       inkscape:connector-curvature="0" />
    <path
       style="fill:#aad400;stroke:#000000;stroke-width:0.26726952px;stroke-linecap:butt;stroke-linejoin:miter;stroke-opacity:1"
       d="m 244.06155,205.87552 5.3022,-3 5.30219,3 -5.30219,3 z"
       id="path2354-8"
       inkscape:connector-curvature="0" />
    <path
       style="fill:#784421;stroke:#000000;stroke-width:0.26726952px;stroke-linecap:butt;stroke-linejoin:miter;stroke-opacity:1"
       d="m 247.59635,211.87552 v 2 l 1.7674,1 1.7674,-1 v -2 l -1.7674,1 z"
       id="path2356-9"
       inkscape:connector-curvature="0" />
    <path
       style="fill:#aa8800;stroke:#000000;stroke-width:0.26726952px;stroke-linecap:butt;stroke-linejoin:miter;stroke-opacity:1"
       d="m 62.019486,204.87552 0.883699,-0.5 -0.883699,-0.5 0.883699,-0.5 0.8837,0.5 0.883699,-0.5 0.8837,0.5 -0.8837,0.5 0.8837,0.5 -0.8837,0.5 -0.883699,-0.5 -0.8837,0.5 z"
       id="path1355"
       inkscape:connector-curvature="0" />
    <path
       style="fill:#aa8800;stroke:#000000;stroke-width:0.26726952px;stroke-linecap:butt;stroke-linejoin:miter;stroke-opacity:1"
       d="m 148.62201,239.87552 0.8837,-0.5 -0.8837,-0.5 0.8837,-0.5 0.8837,0.5 0.8837,-0.5 0.8837,0.5 -0.8837,0.5 0.8837,0.5 -0.8837,0.5 -0.8837,-0.5 -0.8837,0.5 z"
       id="path1355-8"
       inkscape:connector-curvature="0" />
    <path
       style="fill:#554400;stroke:#000000;stroke-width:0.26726952px;stroke-linecap:butt;stroke-linejoin:miter;stroke-opacity:1"
       d="m 174.24929,239.37552 1.76741,-1 1.76739,1 -1.76739,1 z"
       id="path1375"
       inkscape:connector-curvature="0" />
    <path
       style="fill:#ffd42a;stroke:#000000;stroke-width:0.26726952px;stroke-linecap:butt;stroke-linejoin:miter;stroke-opacity:1"
       d="m 227.27126,211.37552 -0.88371,-0.5 -0.88369,0.5 -0.8837,-0.5 v -1 l 0.8837,-0.5 h 1.7674 l 0.88369,0.5 -0.88369,0.5 0.88369,0.5 z"
       id="path1379"
       inkscape:connector-curvature="0" />
    <path
       style="fill:#ffd42a;stroke:#000000;stroke-width:0.26726952px;stroke-linecap:butt;stroke-linejoin:miter;stroke-opacity:1"
       d="m 242.99109,211.6378 0.54597,0.84483 1.01955,-0.041 0.54597,0.84483 -0.47358,0.88577 -1.01956,0.041 -1.56552,-0.80387 -0.54596,-0.84482 1.01955,-0.041 -0.54596,-0.84482 z"
       id="path1379-4"
       inkscape:connector-curvature="0" />
    <path
       style="fill:#d38d5f;stroke:#000000;stroke-width:0.26726952px;stroke-linecap:butt;stroke-linejoin:miter;stroke-opacity:1"
       d="m 225.50386,203.37552 -0.8837,-0.5 -0.8837,0.5 -0.8837,-0.5 v -1 l 0.8837,-0.5 h 1.7674 l 0.88369,0.5 -0.88369,0.5 0.88369,0.5 z"
       id="path1379-8"
       inkscape:connector-curvature="0" />
    <path
       style="fill:#ffd42a;stroke:#000000;stroke-width:0.26726952px;stroke-linecap:butt;stroke-linejoin:miter;stroke-opacity:1"
       d="m 92.06527,199.87552 -0.8837,-0.5 -0.8837,0.5 -0.8837,-0.5 v -1 l 0.8837,-0.5 h 1.7674 l 0.88369,0.5 -0.88369,0.5 0.88369,0.5 z"
       id="path1379-1"
       inkscape:connector-curvature="0" />
    <path
       style="fill:#ff7f2a;stroke:#000000;stroke-width:0.26726952px;stroke-linecap:butt;stroke-linejoin:miter;stroke-opacity:1"
       d="m 96.48377,207.37552 0.88369,-0.5 -0.88369,-0.5 2.65109,-0.5 v 2 l -0.8837,-0.5 -0.8837,0.5 z"
       id="path1419"
       inkscape:connector-curvature="0" />
    <path
       style="fill:#554400;stroke:#000000;stroke-width:0.26726952px;stroke-linecap:butt;stroke-linejoin:miter;stroke-opacity:1"
       d="m 200.76027,219.37552 1.76741,-1 1.76739,1 -1.76739,1 z"
       id="path1375-0"
       inkscape:connector-curvature="0" />
    <path
       style="fill:#554400;stroke:#000000;stroke-width:0.26726952px;stroke-linecap:butt;stroke-linejoin:miter;stroke-opacity:1"
       d="m 205.17877,241.87552 1.76741,-1 1.76739,1 -1.76739,1 z"
       id="path1375-3"
       inkscape:connector-curvature="0" />
    <path
       style="fill:#554400;stroke:#000000;stroke-width:0.26726952px;stroke-linecap:butt;stroke-linejoin:miter;stroke-opacity:1"
       d="m 63.786877,196.87552 1.767408,-1 1.767398,1 -1.767398,1 z"
       id="path1375-04"
       inkscape:connector-curvature="0" />
    <path
       style="fill:#554400;stroke:#000000;stroke-width:0.26726952px;stroke-linecap:butt;stroke-linejoin:miter;stroke-opacity:1"
       d="m 77.042367,209.37552 1.767408,-1 1.767398,1 -1.767398,1 z"
       id="path1375-4"
       inkscape:connector-curvature="0" />
    <path
       style="fill:#aa8800;stroke:#000000;stroke-width:0.26726952px;stroke-linecap:butt;stroke-linejoin:miter;stroke-opacity:1"
       d="m 225.50386,227.37552 0.88369,-0.5 -0.88369,-0.5 0.88369,-0.5 0.88371,0.5 0.8837,-0.5 0.8837,0.5 -0.8837,0.5 0.8837,0.5 -0.8837,0.5 -0.8837,-0.5 -0.88371,0.5 z"
       id="path1355-4"
       inkscape:connector-curvature="0" />
    <path
       style="fill:#668000;stroke:#000000;stroke-width:0.26726952px;stroke-linecap:butt;stroke-linejoin:miter;stroke-opacity:1"
       d="m 81.460873,194.87552 v -2 l -7.953295,-4.5 v 3 l 7.953295,4.5 z"
       id="path1469"
       inkscape:connector-curvature="0" />
    <path
       style="fill:#88aa00;fill-opacity:1;stroke:#000000;stroke-width:0.26726952px;stroke-linecap:butt;stroke-linejoin:miter;stroke-opacity:1"
       d="m 73.507578,188.37552 3.534797,-2 7.953293,4.5 -3.534795,2 z"
       id="path1471"
       inkscape:connector-curvature="0" />
    <path
       style="fill:#668000;stroke:#000000;stroke-width:0.26726952px;stroke-linecap:butt;stroke-linejoin:miter;stroke-opacity:1"
       d="m 84.995668,190.87552 v 3 l -3.534795,2 v -3 z"
       id="path1473"
       inkscape:connector-curvature="0" />
    <path
       style="fill:#aad400;stroke:#000000;stroke-width:0.26726952px;stroke-linecap:butt;stroke-linejoin:miter;stroke-opacity:1"
       d="m 81.460873,191.87552 5.302196,-3 5.302201,3 -5.302201,3 z"
       id="path2354"
       inkscape:connector-curvature="0" />
    <path
       style="fill:#89a02c;stroke:#000000;stroke-width:0.26726952px;stroke-linecap:butt;stroke-linejoin:miter;stroke-opacity:1"
       d="m 81.460873,195.87552 5.302196,3 5.302201,-3 v -4 l -5.302201,3 -5.302196,-3 z"
       id="path2352"
       inkscape:connector-curvature="0" />
    <path
       style="fill:#677821;stroke:#000000;stroke-width:0.26726952px;stroke-linecap:butt;stroke-linejoin:miter;stroke-opacity:1"
       d="m 106.20445,194.87552 -8.83698,5 -8.837,-5 v -5 l 8.837,5 8.83698,-5 z"
       id="path2236"
       inkscape:connector-curvature="0" />
    <path
       style="fill:#88aa00;stroke:#000000;stroke-width:0.26726952px;stroke-linecap:butt;stroke-linejoin:miter;stroke-opacity:1"
       d="m 108.85555,201.37552 v -4 l 4.41848,-2.5 v 4 z"
       id="path1501"
       inkscape:connector-curvature="0" />
    <path
       style="fill:#88aa00;stroke:#000000;stroke-width:0.26726952px;stroke-linecap:butt;stroke-linejoin:miter;stroke-opacity:1"
       d="m 108.85555,197.37552 -2.6511,-1.5 v 4 l 2.6511,1.5 z"
       id="path1503"
       inkscape:connector-curvature="0" />
    <path
       style="fill:#668000;stroke:#000000;stroke-width:0.26726952px;stroke-linecap:butt;stroke-linejoin:miter;stroke-opacity:1"
       d="m 106.20445,195.87552 4.41849,-2.5 2.65109,1.5 -4.41848,2.5 z"
       id="path1505"
       inkscape:connector-curvature="0" />
    <path
       style="fill:#89a02c;stroke:#000000;stroke-width:0.26726952px;stroke-linecap:butt;stroke-linejoin:miter;stroke-opacity:1"
       d="m 97.36747,201.87552 5.30219,3 5.30219,-3 v -4 l -5.30219,3 -5.30219,-3 z"
       id="path2352-3"
       inkscape:connector-curvature="0" />
    <path
       style="fill:#aad400;stroke:#000000;stroke-width:0.26726952px;stroke-linecap:butt;stroke-linejoin:miter;stroke-opacity:1"
       d="m 97.36747,197.87552 5.30219,-3 5.30219,3 -5.30219,3 z"
       id="path2354-0"
       inkscape:connector-curvature="0" />
    <path
       style="fill:none;stroke:#000000;stroke-width:0.26726952px;stroke-linecap:butt;stroke-linejoin:miter;stroke-opacity:1"
       d="m 65.554284,185.87552 5.302196,3 5.302197,-3 -5.302197,-3 z"
       id="path1510"
       inkscape:connector-curvature="0" />
    <path
       style="fill:#c87137;stroke:#000000;stroke-width:0.26726952px;stroke-linecap:butt;stroke-linejoin:miter;stroke-opacity:1"
       d="m 69.089081,187.87552 v 3 l 1.767399,1 1.767399,-1 v -3 l -1.767399,1 z"
       id="path1516"
       inkscape:connector-curvature="0" />
    <path
       style="fill:none;stroke:#000000;stroke-width:0.26726952px;stroke-linecap:butt;stroke-linejoin:miter;stroke-opacity:1"
       d="m 67.321683,180.87552 3.534797,2 3.534798,-2"
       id="path1518"
       inkscape:connector-curvature="0" />
    <path
       style="fill:none;stroke:#000000;stroke-width:0.26726952px;stroke-linecap:butt;stroke-linejoin:miter;stroke-opacity:1"
       d="m 68.205382,173.37552 2.651098,1.5 2.651098,-1.5"
       id="path1520"
       inkscape:connector-curvature="0" />
    <path
       style="fill:none;stroke:#000000;stroke-width:0.26726952px;stroke-linecap:butt;stroke-linejoin:miter;stroke-opacity:1"
       d="m 66.437983,183.37552 4.418497,2.5 4.418497,-2.5"
       id="path1524"
       inkscape:connector-curvature="0" />
    <path
       style="fill:#668000;stroke:#000000;stroke-width:0.26726952px;stroke-linecap:butt;stroke-linejoin:miter;stroke-opacity:1"
       d="m 61.135787,194.37552 v -3 l -3.534799,-2 v 3 z"
       id="path1526"
       inkscape:connector-curvature="0" />
    <path
       style="fill:#668000;stroke:#000000;stroke-width:0.26726952px;stroke-linecap:butt;stroke-linejoin:miter;stroke-opacity:1"
       d="m 61.135787,191.37552 7.953294,-4.5 v 3 l -7.953294,4.5 z"
       id="path1528"
       inkscape:connector-curvature="0" />
    <path
       style="fill:#aad400;fill-opacity:1;stroke:#000000;stroke-width:0.26726952px;stroke-linecap:butt;stroke-linejoin:miter;stroke-opacity:1"
       d="m 57.600988,189.37552 7.953296,-4.5 3.534797,2 -7.953294,4.5 z"
       id="path1530"
       inkscape:connector-curvature="0" />
    <path
       style="fill:#668000;stroke:#000000;stroke-width:0.26726952px;stroke-linecap:butt;stroke-linejoin:miter;stroke-opacity:1"
       d="m 76.158677,185.87552 -2.651099,-8.5 h -5.302196 l -2.651098,8.5 5.302196,3 z"
       id="path1512"
       inkscape:connector-curvature="0" />
    <path
       style="fill:#668000;stroke:#000000;stroke-width:0.26726952px;stroke-linecap:butt;stroke-linejoin:miter;stroke-opacity:1"
       d="m 75.274977,177.37552 -4.418497,2.5 -4.418497,-2.5 4.418497,-9.5 z"
       id="path1514"
       inkscape:connector-curvature="0"
       sodipodi:nodetypes="ccccc" />
    <path
       style="fill:#88aa00;stroke:#000000;stroke-width:0.26726952px;stroke-linecap:butt;stroke-linejoin:miter;stroke-opacity:1"
       d="m 77.042375,206.37552 v -5 l -4.418496,-2.5 -4.418497,2.5 v 5 l 4.418497,2.5 z"
       id="path1534"
       inkscape:connector-curvature="0" />
    <path
       style="fill:#aad400;stroke:#000000;stroke-width:0.26726952px;stroke-linecap:butt;stroke-linejoin:miter;stroke-opacity:1"
       d="m 68.205382,201.37552 4.418497,2.5 4.418496,-2.5 -4.418496,-2.5 z"
       id="path1536"
       inkscape:connector-curvature="0" />
    <path
       style="fill:#88aa00;stroke:#000000;stroke-width:0.26726952px;stroke-linecap:butt;stroke-linejoin:miter;stroke-opacity:1"
       d="m 172.4819,230.37552 v -4 l 4.4185,-2.5 v 4 z"
       id="path1501-3"
       inkscape:connector-curvature="0" />
    <path
       style="fill:#88aa00;stroke:#000000;stroke-width:0.26726952px;stroke-linecap:butt;stroke-linejoin:miter;stroke-opacity:1"
       d="m 172.4819,226.37552 -2.65109,-1.5 v 4 l 2.65109,1.5 z"
       id="path1503-1"
       inkscape:connector-curvature="0" />
    <path
       style="fill:#668000;stroke:#000000;stroke-width:0.26726952px;stroke-linecap:butt;stroke-linejoin:miter;stroke-opacity:1"
       d="m 169.83081,224.87552 4.4185,-2.5 2.65109,1.5 -4.4185,2.5 z"
       id="path1505-7"
       inkscape:connector-curvature="0" />
    <path
       style="fill:#668000;stroke:#000000;stroke-width:0.26726952px;stroke-linecap:butt;stroke-linejoin:miter;stroke-opacity:1"
       d="m 167.1797,230.37552 v -2 l -7.95331,-4.5 v 3 l 7.95331,4.5 z"
       id="path1469-5"
       inkscape:connector-curvature="0" />
    <path
       style="fill:#88aa00;fill-opacity:1;stroke:#000000;stroke-width:0.26726952px;stroke-linecap:butt;stroke-linejoin:miter;stroke-opacity:1"
       d="m 159.22639,223.87552 3.53481,-2 7.95328,4.5 -3.53478,2 z"
       id="path1471-9"
       inkscape:connector-curvature="0" />
    <path
       style="fill:#668000;stroke:#000000;stroke-width:0.26726952px;stroke-linecap:butt;stroke-linejoin:miter;stroke-opacity:1"
       d="m 167.17969,231.37552 2.6511,-1.5 0.88369,-0.5 v -3 l -3.53479,2 z"
       id="path1577"
       inkscape:connector-curvature="0" />
    <path
       style="fill:#ac9d93;stroke:#000000;stroke-width:0.26726952px;stroke-linecap:butt;stroke-linejoin:miter;stroke-opacity:1"
       d="m 69.089081,237.87552 2.651098,1.5 v -2 l -0.883699,-0.5 v -1 l -1.767399,-1 z"
       id="path1585"
       inkscape:connector-curvature="0" />
    <path
       style="fill:#6c5d53;stroke:#000000;stroke-width:0.26726952px;stroke-linecap:butt;stroke-linejoin:miter;stroke-opacity:1"
       d="m 101.78596,256.37552 v -1 l 1.7674,1 v -2 l 0.8837,0.5 v 3 z"
       id="path1587"
       inkscape:connector-curvature="0" />
    <path
       style="fill:#ac9d93;stroke:#000000;stroke-width:0.26726952px;stroke-linecap:butt;stroke-linejoin:miter;stroke-opacity:1"
       d="m 122.11103,269.87552 v -1 l 1.7674,1 v 1 z"
       id="path1589"
       inkscape:connector-curvature="0" />
    <path
       style="fill:#483e37;stroke:#000000;stroke-width:0.26726952px;stroke-linecap:butt;stroke-linejoin:miter;stroke-opacity:1"
       d="m 91.18157,251.37552 v -3 l -3.534802,-1 v 3 z"
       id="path1591"
       inkscape:connector-curvature="0" />
    <path
       style="fill:#483e37;stroke:#000000;stroke-width:0.26726952px;stroke-linecap:butt;stroke-linejoin:miter;stroke-opacity:1"
       d="m 152.15681,283.87552 1.13619,-2.78571 -2.90359,-2.21429 -1.13619,2.78571 z"
       id="path1591-6"
       inkscape:connector-curvature="0" />
    <path
       style="fill:#ac9d93;stroke:#000000;stroke-width:0.26726952px;stroke-linecap:butt;stroke-linejoin:miter;stroke-opacity:1"
       d="m 148.62201,284.87552 v -1 l 1.7674,1 v 1 z"
       id="path1589-2"
       inkscape:connector-curvature="0" />
    <path
       style="fill:#ac9d93;stroke:#000000;stroke-width:0.26726952px;stroke-linecap:butt;stroke-linejoin:miter;stroke-opacity:1"
       d="m 83.228272,244.87552 v -1 l 1.767397,1 v 1 z"
       id="path1589-1"
       inkscape:connector-curvature="0" />
    <path
       style="fill:#ac9d93;stroke:#000000;stroke-width:0.26726952px;stroke-linecap:butt;stroke-linejoin:miter;stroke-opacity:1"
       d="m 137.13392,275.37552 v -1 l 0.8837,0.5 v 1 z"
       id="path1629"
       inkscape:connector-curvature="0" />
    <path
       style="fill:#ac9d93;stroke:#000000;stroke-width:0.26726952px;stroke-linecap:butt;stroke-linejoin:miter;stroke-opacity:1"
       d="m 100.01856,254.37552 v -1 l 0.8837,0.5 v 1 z"
       id="path1629-7"
       inkscape:connector-curvature="0" />
    <path
       style="fill:#ac9d93;stroke:#000000;stroke-width:0.26726952px;stroke-linecap:butt;stroke-linejoin:miter;stroke-opacity:1"
       d="m 45.229193,225.37552 v -1 l 0.883701,0.5 v 1 z"
       id="path1629-8"
       inkscape:connector-curvature="0" />
    <path
       style="fill:#ac9d93;stroke:#000000;stroke-width:0.26726952px;stroke-linecap:butt;stroke-linejoin:miter;stroke-opacity:1"
       d="m 57.600985,229.37552 v -1 l 0.883701,0.5 v 1 z"
       id="path1629-5"
       inkscape:connector-curvature="0" />
    <path
       style="fill:#6c5353;stroke:#000000;stroke-width:0.26726952px;stroke-linecap:butt;stroke-linejoin:miter;stroke-opacity:1"
       d="m 180.43519,280.87552 1.76739,-0.99999 v 1.99998 l -1.76739,0.99999 z"
       id="path1658"
       inkscape:connector-curvature="0" />
    <path
       style="fill:#6c5353;stroke:#000000;stroke-width:0.26726952px;stroke-linecap:butt;stroke-linejoin:miter;stroke-opacity:1"
       d="m 208.71356,262.87552 1.7674,-0.99999 v 1.99998 l -1.7674,0.99999 z"
       id="path1658-7"
       inkscape:connector-curvature="0" />
    <path
       style="fill:#6c5353;stroke:#000000;stroke-width:0.26726952px;stroke-linecap:butt;stroke-linejoin:miter;stroke-opacity:1"
       d="m 245.82894,246.87552 1.7674,-0.99999 v 1.99998 l -1.7674,0.99999 z"
       id="path1658-4"
       inkscape:connector-curvature="0" />
    <path
       style="fill:#a05a2c;stroke:#000000;stroke-width:0.26726952px;stroke-linecap:butt;stroke-linejoin:miter;stroke-opacity:1"
       d="m 190.15588,274.37552 v 3 l 3.5348,-2 v -2 l -0.8837,0.5 v -1 l -0.8837,0.5 v 1 l -0.8837,0.5 v -1 z"
       id="path1681"
       inkscape:connector-curvature="0" />
    <path
       style="fill:#ac9393;stroke:#000000;stroke-width:0.26726952px;stroke-linecap:butt;stroke-linejoin:miter;stroke-opacity:1"
       d="m 220.20167,259.37552 v 2 l 5.30219,-2 -0.8837,-2.5 z"
       id="path1683"
       inkscape:connector-curvature="0" />
    <path
       style="fill:#917c6f;stroke:#000000;stroke-width:0.26726952px;stroke-linecap:butt;stroke-linejoin:miter;stroke-opacity:1"
       d="m 252.89854,242.87552 3.5348,-2 v -2 l -3.5348,2 z"
       id="path1694"
       inkscape:connector-curvature="0" />
    <path
       style="fill:#917c6f;stroke:#000000;stroke-width:0.26726952px;stroke-linecap:butt;stroke-linejoin:miter;stroke-opacity:1"
       d="m 201.64398,273.87552 3.5348,-2 v -2 l -3.5348,2 z"
       id="path1694-1"
       inkscape:connector-curvature="0" />
    <path
       style="fill:#ffdd55;stroke:#000000;stroke-width:0.26726952px;stroke-linecap:butt;stroke-linejoin:miter;stroke-opacity:1"
       d="m 230.80605,252.37552 v -1 l 0.88371,-0.5 v 1 z"
       id="path1711"
       inkscape:connector-curvature="0" />
    <path
       style="fill:#c8beb7;stroke:#000000;stroke-width:0.26726952px;stroke-linecap:butt;stroke-linejoin:miter;stroke-opacity:1"
       d="m 211.36467,267.37552 v -1 l 0.8837,-0.5 v 1 z"
       id="path1711-8"
       inkscape:connector-curvature="0" />
    <path
       style="fill:#483e37;stroke:#000000;stroke-width:0.26726952px;stroke-linecap:butt;stroke-linejoin:miter;stroke-opacity:1"
       d="m 185.73738,281.87552 v -1 l 0.8837,-0.5 v 1 z"
       id="path1711-5"
       inkscape:connector-curvature="0" />
    <path
       style="fill:#c8beb7;stroke:#000000;stroke-width:0.26726952px;stroke-linecap:butt;stroke-linejoin:miter;stroke-opacity:1"
       d="m 170.71449,290.37552 v -1 l 0.88371,-0.5 v 1 z"
       id="path1711-9"
       inkscape:connector-curvature="0" />
    <path
       style="fill:#fff6d5;stroke:#000000;stroke-width:0.26726952px;stroke-linecap:butt;stroke-linejoin:miter;stroke-opacity:1"
       d="m 182.20258,274.87552 v -1 l 0.88371,-0.5 v 1 z"
       id="path1711-53"
       inkscape:connector-curvature="0" />
    <path
       style="fill:#fff6d5;stroke:#000000;stroke-width:0.26726952px;stroke-linecap:butt;stroke-linejoin:miter;stroke-opacity:1"
       d="m 204.29507,262.37552 v -1 l 0.88371,-0.5 v 1 z"
       id="path1711-88"
       inkscape:connector-curvature="0" />
    <path
       style="fill:#fff6d5;stroke:#000000;stroke-width:0.26726952px;stroke-linecap:butt;stroke-linejoin:miter;stroke-opacity:1"
       d="m 221.96905,252.37552 v -1 l 0.88371,-0.5 v 1 z"
       id="path1711-3"
       inkscape:connector-curvature="0" />
    <path
       style="fill:#f4eed7;stroke:#000000;stroke-width:0.26726952px;stroke-linecap:butt;stroke-linejoin:miter;stroke-opacity:1"
       d="m 239.64304,242.37552 v -1 l 0.88371,-0.5 v 1 z"
       id="path1711-1"
       inkscape:connector-curvature="0" />
    <path
       style="fill:#f4eed7;stroke:#000000;stroke-width:0.26726952px;stroke-linecap:butt;stroke-linejoin:miter;stroke-opacity:1"
       d="m 257.31703,232.37552 v -1 l 0.88371,-0.5 v 1 z"
       id="path1711-89"
       inkscape:connector-curvature="0" />
    <path
       style="fill:#fff6d5;stroke:#000000;stroke-width:0.26726952px;stroke-linecap:butt;stroke-linejoin:miter;stroke-opacity:1"
       d="m 184.85369,271.37552 v -1 l 0.8837,-0.5 v 1 z"
       id="path1711-6"
       inkscape:connector-curvature="0" />
    <path
       style="fill:#fff6d5;stroke:#000000;stroke-width:0.26726952px;stroke-linecap:butt;stroke-linejoin:miter;stroke-opacity:1"
       d="m 190.15588,271.37552 v -1 l 0.8837,-0.5 v 1 z"
       id="path1711-4"
       inkscape:connector-curvature="0" />
    <path
       style="fill:#fff6d5;stroke:#000000;stroke-width:0.26726952px;stroke-linecap:butt;stroke-linejoin:miter;stroke-opacity:1"
       d="m 51.415089,221.87552 v -1 l 0.883701,0.5 v 1 z"
       id="path1629-7-3"
       inkscape:connector-curvature="0" />
    <path
       style="fill:#e3dedb;stroke:#000000;stroke-width:0.26726952px;stroke-linecap:butt;stroke-linejoin:miter;stroke-opacity:1"
       d="m 55.83359,221.37552 v -1 l 0.883701,0.5 v 1 z"
       id="path1629-7-33"
       inkscape:connector-curvature="0" />
    <path
       style="fill:#fff6d5;stroke:#000000;stroke-width:0.26726952px;stroke-linecap:butt;stroke-linejoin:miter;stroke-opacity:1"
       d="m 60.252083,226.87552 v -1 l 0.883701,0.5 v 1 z"
       id="path1629-7-8"
       inkscape:connector-curvature="0" />
    <path
       style="fill:#e3dedb;stroke:#000000;stroke-width:0.26726952px;stroke-linecap:butt;stroke-linejoin:miter;stroke-opacity:1"
       d="m 73.507573,234.37552 v -1 l 0.883701,0.5 v 1 z"
       id="path1629-7-6"
       inkscape:connector-curvature="0" />
    <path
       style="fill:#f4e3d7;stroke:#000000;stroke-width:0.26726952px;stroke-linecap:butt;stroke-linejoin:miter;stroke-opacity:1"
       d="m 69.089081,228.87552 v -1 l 0.883701,0.5 v 1 z"
       id="path1629-7-0"
       inkscape:connector-curvature="0" />
    <path
       style="fill:#e3dedb;stroke:#000000;stroke-width:0.26726952px;stroke-linecap:butt;stroke-linejoin:miter;stroke-opacity:1"
       d="m 86.763064,241.87552 v -1 l 0.883701,0.5 v 1 z"
       id="path1629-7-4"
       inkscape:connector-curvature="0" />
    <path
       style="fill:#e3dedb;stroke:#000000;stroke-width:0.26726952px;stroke-linecap:butt;stroke-linejoin:miter;stroke-opacity:1"
       d="m 117.69253,259.37552 v -1 l 0.8837,0.5 v 1 z"
       id="path1629-7-88"
       inkscape:connector-curvature="0" />
    <path
       style="fill:#e3dedb;stroke:#000000;stroke-width:0.26726952px;stroke-linecap:butt;stroke-linejoin:miter;stroke-opacity:1"
       d="m 148.62201,275.87552 v -1 l 0.8837,0.5 v 1 z"
       id="path1629-7-89"
       inkscape:connector-curvature="0" />
    <path
       style="fill:#e3dbdb;stroke:#000000;stroke-width:0.26726952px;stroke-linecap:butt;stroke-linejoin:miter;stroke-opacity:1"
       d="m 119.45993,166.37552 -4.4185,-2.5 -1.76739,1 4.41849,2.5 z"
       id="path1849"
       inkscape:connector-curvature="0" />
    <path
       style="fill:#e3dbdb;stroke:#000000;stroke-width:0.26726952px;stroke-linecap:butt;stroke-linejoin:miter;stroke-opacity:1"
       d="m 119.45993,166.37552 v 3 l -1.7674,1 -4.41849,-2.5 c 0,0.0575 0,-2.33333 0,-3 l 4.41849,2.5 z"
       id="path1851"
       inkscape:connector-curvature="0"
       sodipodi:nodetypes="ccccccc" />
    <path
       style="fill:none;stroke:#000000;stroke-width:0.26726952px;stroke-linecap:butt;stroke-linejoin:miter;stroke-opacity:1"
       d="m 117.69253,167.37552 v 3"
       id="path1853"
       inkscape:connector-curvature="0"
       sodipodi:nodetypes="cc" />
    <path
       style="fill:#e3dbdb;stroke:#000000;stroke-width:0.26726952px;stroke-linecap:butt;stroke-linejoin:miter;stroke-opacity:1"
       d="m 116.80883,169.87552 v 7 l -0.8837,-0.5 v -7 z"
       id="path1855"
       inkscape:connector-curvature="0" />
    <path
       style="fill:#241f1c;stroke:#000000;stroke-width:0.26726952px;stroke-linecap:butt;stroke-linejoin:miter;stroke-opacity:1"
       d="m 117.69253,165.37552 v -1 l -0.8837,-0.5 v 1 z"
       id="path1857"
       inkscape:connector-curvature="0" />
    <path
       style="fill:#e3dbdb;stroke:#000000;stroke-width:0.26726952px;stroke-linecap:butt;stroke-linejoin:miter;stroke-opacity:1"
       d="m 121.22733,176.37552 0.8837,0.5 3.53479,-2 v -1 z"
       id="path1861"
       inkscape:connector-curvature="0" />
    <path
       style="fill:#e3dbdb;stroke:#000000;stroke-width:0.26726952px;stroke-linecap:butt;stroke-linejoin:miter;stroke-opacity:1"
       d="m 121.22733,177.37552 0.8837,0.5 3.53479,-2 v -1 l -3.53479,2 -0.8837,-0.5 z"
       id="path1863"
       inkscape:connector-curvature="0" />
    <path
       style="fill:none;stroke:#000000;stroke-width:0.26726952px;stroke-linecap:butt;stroke-linejoin:miter;stroke-opacity:1"
       d="m 122.11103,176.87552 v 1"
       id="path1865"
       inkscape:connector-curvature="0" />
    <path
       style="opacity:1;fill:#c0bcaf;fill-opacity:0.93564357;stroke:#000000;stroke-width:0.26726952px;stroke-linecap:butt;stroke-linejoin:miter;stroke-opacity:1"
       d="m 143.31981,167.87552 1.7674,1 v 9 l 0.8837,0.5 v -9 l 1.7674,1 v 11 l -4.4185,-2.5 z"
       id="path6297"
       inkscape:connector-curvature="0" />
  </g>
</svg>
