<?xml version="1.0" standalone="no"?>
<!DOCTYPE svg PUBLIC "-//W3C//DTD SVG 20010904//EN"
 "http://www.w3.org/TR/2001/REC-SVG-20010904/DTD/svg10.dtd">
<svg version="1.0" xmlns="http://www.w3.org/2000/svg"
 width="733.000000pt" height="733.000000pt" viewBox="0 0 733.000000 733.000000"
 preserveAspectRatio="xMidYMid meet">
<metadata>
Created by potrace 1.11, written by Peter Selinger 2001-2013
</metadata>
<g transform="translate(0.000000,733.000000) scale(0.100000,-0.100000)"
fill="#000000" stroke="none">
<path d="M3056 6670 c-76 -10 -141 -22 -145 -28 -3 -6 -40 -161 -81 -344 -65
-290 -75 -326 -78 -278 l-3 55 -429 244 c-236 133 -438 245 -448 248 -11 3
-135 -62 -330 -172 l-312 -177 -1 -142 c0 -77 0 -345 1 -594 l1 -453 -62 -67
c-34 -37 -91 -105 -128 -151 -36 -46 -75 -95 -87 -109 l-21 -25 -373 52 c-205
28 -374 50 -375 49 -14 -15 -136 -260 -133 -267 1 -5 100 -116 219 -248 317
-351 283 -305 264 -349 -30 -72 -92 -300 -120 -439 -20 -100 -33 -144 -47
-155 -17 -14 -18 -35 -16 -369 l3 -353 1755 -993 1755 -993 50 27 c28 14 650
366 1383 781 l1332 754 0 356 c0 196 -4 360 -9 366 -5 5 -11 72 -15 150 l-6
141 28 9 c50 16 652 415 652 433 0 15 -60 273 -65 279 -4 5 -700 73 -757 74
l-56 1 -28 66 c-45 107 -158 331 -218 430 -60 99 -63 108 -42 125 13 10 371
647 378 672 2 6 -41 61 -95 122 l-97 110 -307 -123 -306 -123 -33 20 -32 19
-56 -32 -56 -31 -56 43 c-105 84 -237 177 -326 230 -138 84 -125 57 -118 259
4 96 9 276 11 398 l4 224 -139 53 -140 52 -146 -171 c-119 -140 -360 -425
-364 -433 -1 -1 -42 7 -91 18 -132 30 -332 58 -469 65 l-119 7 -174 354 c-95
194 -177 353 -181 352 -4 -1 -69 -9 -146 -19z"/>
</g>
</svg>
