<?xml version="1.0" encoding="UTF-8" standalone="no"?>
<!-- Created with Inkscape (http://www.inkscape.org/) -->

<svg
   xmlns:dc="http://purl.org/dc/elements/1.1/"
   xmlns:cc="http://creativecommons.org/ns#"
   xmlns:rdf="http://www.w3.org/1999/02/22-rdf-syntax-ns#"
   xmlns:svg="http://www.w3.org/2000/svg"
   xmlns="http://www.w3.org/2000/svg"
   xmlns:sodipodi="http://sodipodi.sourceforge.net/DTD/sodipodi-0.dtd"
   xmlns:inkscape="http://www.inkscape.org/namespaces/inkscape"
   width="297mm"
   height="177mm"
   viewBox="0 0 297 177"
   version="1.1"
   id="svg5479"
   inkscape:version="0.92.2 2405546, 2018-03-11"
   sodipodi:docname="bg.svg">
  <defs
     id="defs5473" />
  <sodipodi:namedview
     id="base"
     pagecolor="#ffffff"
     bordercolor="#666666"
     borderopacity="1.0"
     inkscape:pageopacity="0.0"
     inkscape:pageshadow="2"
     inkscape:zoom="0.49497475"
     inkscape:cx="329.33599"
     inkscape:cy="35.497262"
     inkscape:document-units="mm"
     inkscape:current-layer="layer1"
     showgrid="false"
     inkscape:window-width="1680"
     inkscape:window-height="998"
     inkscape:window-x="0"
     inkscape:window-y="0"
     inkscape:window-maximized="1" />
  <metadata
     id="metadata5476">
    <rdf:RDF>
      <cc:Work
         rdf:about="">
        <dc:format>image/svg+xml</dc:format>
        <dc:type
           rdf:resource="http://purl.org/dc/dcmitype/StillImage" />
        <dc:title></dc:title>
      </cc:Work>
    </rdf:RDF>
  </metadata>
  <g
     inkscape:label="Layer 1"
     inkscape:groupmode="layer"
     id="layer1"
     transform="translate(0,-120)">
    <path
       style="fill:none;stroke:#000000;stroke-width:0.26458332px;stroke-linecap:butt;stroke-linejoin:miter;stroke-opacity:1"
       d="M 0,172.26786 C 114.65485,196.75564 136.94221,99.314158 296.33333,132.20238"
       id="path5481"
       inkscape:connector-curvature="0"
       sodipodi:nodetypes="cc" />
    <path
       style="fill:none;stroke:#000000;stroke-width:0.26458332px;stroke-linecap:butt;stroke-linejoin:miter;stroke-opacity:1"
       d="M 297.2037,203.99021 C 168.14306,194.68206 149.7901,245.51142 133.63476,297.53454"
       id="path5483"
       inkscape:connector-curvature="0"
       sodipodi:nodetypes="cc" />
    <path
       style="fill:#5a47a0;fill-opacity:1;stroke:none;stroke-width:0.35564354;stroke-linecap:butt;stroke-linejoin:bevel;stroke-miterlimit:4;stroke-dasharray:none;stroke-opacity:1"
       d="m 0.33145824,233.12164 c -0.063269,-35.06999 -0.11503452,-63.78926 -0.11503452,-63.8206 0,-0.0313 2.04022568,0.35538 4.53383468,0.85939 24.5561966,4.96327 48.9390106,3.97144 72.7302646,-2.95845 11.155287,-3.24932 19.354519,-6.44435 40.993427,-15.97404 17.73877,-7.81211 24.95496,-10.87247 33.21299,-14.08549 23.14613,-9.00565 41.17984,-13.35082 63.88664,-15.39332 6.8115,-0.61269 30.42197,-0.61393 37.78195,-0.002 12.3535,1.02715 27.46273,3.16676 39.19877,5.55093 l 4.06158,0.82509 v 36.48663 36.48661 l -4.62829,-0.30235 c -8.37081,-0.54687 -22.97076,-0.77227 -33.15368,-0.51187 -47.42043,1.21264 -79.91671,14.00836 -99.41777,39.14668 -9.31756,12.01103 -15.56428,25.03778 -22.80004,47.54665 l -3.12251,9.71337 -66.52355,0.0981 -66.52354723,0.0982 z"
       id="path6280"
       inkscape:connector-curvature="0" />
    <path
       style="fill:#aa54ae;fill-opacity:1;stroke:none;stroke-width:0.2928969;stroke-linecap:butt;stroke-linejoin:bevel;stroke-miterlimit:4;stroke-dasharray:none;stroke-opacity:1;paint-order:stroke markers fill"
       d="m 24.899279,180.25882 c -6.824783,-0.35159 -14.574538,-1.05409 -21.5738223,-1.95563 l -3.83851193,-0.49441 0.18057351,-29.29286 c 0.0993154,-16.11108 0.22082296,-29.32472 0.27001673,-29.36366 0.12040637,-0.0953 297.63793499,0.32721 297.77843499,0.4229 0.15841,0.10789 -0.43257,30.51978 -0.59523,30.63057 -0.0744,0.0507 -2.04221,-0.16531 -4.3728,-0.47999 -12.66454,-1.70997 -26.46328,-2.97028 -40.78295,-3.72492 -7.10145,-0.37424 -28.92808,-0.31585 -35.73933,0.0956 -19.74609,1.19284 -36.12705,3.50846 -54.57306,7.71451 -11.08567,2.52775 -19.11287,4.73647 -43.91166,12.0825 -31.400968,9.30176 -46.847726,12.51836 -67.716639,14.10117 -4.487773,0.34039 -20.398694,0.5077 -25.125022,0.26421 z"
       id="path6284"
       inkscape:connector-curvature="0" />
    <path
       style="fill:none;stroke:#000000;stroke-width:0.26458332px;stroke-linecap:butt;stroke-linejoin:miter;stroke-opacity:1"
       d="m 133.49359,296.68887 163.44286,0.84567 -0.25294,-93.91959"
       id="path6286"
       inkscape:connector-curvature="0" />
    <path
       style="fill:#33548c;fill-opacity:1;stroke:none;stroke-width:0.3743239;stroke-linecap:butt;stroke-linejoin:bevel;stroke-miterlimit:4;stroke-dasharray:none;stroke-opacity:1"
       d="m 227.79153,297.88416 c -24.35717,-0.13285 -56.73743,-0.33907 -71.95616,-0.45829 l -27.67042,-0.21674 3.12573,-9.83605 c 6.11278,-19.23568 11.5312,-31.76139 18.31767,-42.34481 6.14908,-9.58942 14.46328,-18.56443 22.94778,-24.77167 18.5232,-13.55151 41.51415,-20.73906 74.53232,-23.30067 6.61118,-0.5129 26.45504,-0.67951 35.29825,-0.29635 8.76261,0.37966 13.91186,0.7144 14.10631,0.91701 0.0676,0.0705 0.21288,22.74446 0.32271,50.38662 l 0.19975,50.25845 -12.46911,-0.0479 c -6.858,-0.0263 -32.39768,-0.15667 -56.75483,-0.28952 z"
       id="path6288"
       inkscape:connector-curvature="0" />
  </g>
</svg>
